<svg width="48" height="42" viewBox="0 0 48 42" fill="none" xmlns="http://www.w3.org/2000/svg">
<path d="M29.5781 3.53545C29.9665 3.53545 30.2812 3.22064 30.2812 2.83233V0.708985C30.2812 0.320672 29.9665 0.00585938 29.5781 0.00585938C29.1897 0.00585938 28.875 0.320672 28.875 0.708985V2.83233C28.875 3.22064 29.1897 3.53545 29.5781 3.53545ZM26.1184 3.66595C26.311 4.00777 26.7431 4.12074 27.0762 3.93286C27.4145 3.74208 27.534 3.31327 27.3432 2.97502L26.4516 1.39439C26.2609 1.05623 25.8319 0.936797 25.4937 1.12748C25.1555 1.31827 25.0359 1.74708 25.2267 2.08533L26.1184 3.66595ZM32.0801 3.93286C32.4125 4.12027 32.8452 4.00777 33.038 3.66595L33.9296 2.08533C34.1204 1.74708 34.001 1.31827 33.6626 1.12748C33.3247 0.936703 32.8956 1.05623 32.7048 1.39439L31.8131 2.97502C31.6223 3.31327 31.7418 3.74208 32.0801 3.93286V3.93286ZM45.5963 23.2468L39.8963 21.3474C39.5733 21.2397 39.3133 20.9966 39.1834 20.6803L36.0072 12.9526C35.4637 11.6291 34.1873 10.7738 32.7552 10.7738H32.7188V9.50799C32.7188 7.77624 31.3099 6.36736 29.5781 6.36736C27.8464 6.36736 26.4375 7.77624 26.4375 9.50799V10.7738H21.6599C21.6587 10.7738 21.6575 10.7736 21.6562 10.7736C21.655 10.7736 21.6538 10.7738 21.6526 10.7738H3.51562C1.57706 10.7738 0 12.3509 0 14.2894V18.9299C0 19.3182 0.314719 19.633 0.703125 19.633C1.09153 19.633 1.40625 19.3182 1.40625 18.9299V14.2894C1.40625 13.1263 2.35256 12.1801 3.51562 12.1801H20.9531V27.3674H1.40625V22.2111C1.40625 21.8228 1.09153 21.508 0.703125 21.508C0.314719 21.508 0 21.8228 0 22.2111V33.2738C0 35.2124 1.57706 36.7894 3.51562 36.7894H5.31675C5.66578 39.7156 8.16103 41.9924 11.1797 41.9924C14.1983 41.9924 16.6936 39.7156 17.0426 36.7894H29.8558C30.2048 39.7156 32.7001 41.9924 35.7188 41.9924C38.7374 41.9924 41.2327 39.7156 41.5817 36.7894H44.4844C46.4229 36.7894 48 35.2124 48 33.2738V26.5819C48 25.0659 47.034 23.7256 45.5963 23.2468V23.2468ZM11.1797 40.5861C8.69831 40.5861 6.67969 38.5674 6.67969 36.0861C6.67969 33.6048 8.69831 31.5861 11.1797 31.5861C13.6611 31.5861 15.6797 33.6048 15.6797 36.0861C15.6797 38.5674 13.6611 40.5861 11.1797 40.5861ZM20.9531 35.3832H17.0426C16.6938 32.4569 14.1983 30.1799 11.1797 30.1799C8.16103 30.1799 5.66559 32.4569 5.31675 35.3832H3.51562C2.35256 35.3832 1.40625 34.437 1.40625 33.2738V28.7736H20.9531V35.3832ZM27.8438 9.50799C27.8438 8.55164 28.6218 7.77361 29.5781 7.77361C30.5345 7.77361 31.3125 8.55164 31.3125 9.50799V10.7738H27.8438V9.50799ZM35.7188 40.5861C33.2374 40.5861 31.2188 38.5674 31.2188 36.0861C31.2188 33.6048 33.2374 31.5861 35.7188 31.5861C38.2001 31.5861 40.2188 33.6048 40.2188 36.0861C40.2188 38.5674 38.2001 40.5861 35.7188 40.5861ZM46.5938 27.3674H35.869C35.4806 27.3674 35.1659 27.6822 35.1659 28.0705C35.1659 28.4588 35.4806 28.7736 35.869 28.7736H46.5938V33.2738C46.5938 34.437 45.6474 35.3832 44.4844 35.3832H41.5817C41.2328 32.4569 38.7374 30.1799 35.7188 30.1799C32.7001 30.1799 30.2047 32.4569 29.8558 35.3832H22.3594V28.7736H32.5878C32.9762 28.7736 33.2909 28.4588 33.2909 28.0705C33.2909 27.6822 32.9762 27.3674 32.5878 27.3674H22.3594V12.1801H32.7553C33.6145 12.1801 34.3805 12.693 34.7065 13.487L37.8827 21.2148C38.1683 21.9098 38.7402 22.4443 39.4518 22.6815L45.1519 24.5808C46.0143 24.8681 46.5938 25.6723 46.5938 26.5818V27.3674ZM33.3955 14.3205C33.216 13.8744 32.7892 13.5861 32.3084 13.5861H24.9375C24.2913 13.5861 23.7656 14.1118 23.7656 14.758V21.2736C23.7656 21.9198 24.2913 22.4455 24.9375 22.4455H34.9311C35.7401 22.4515 36.3269 21.5867 36.0182 20.836L33.3955 14.3205ZM25.1719 21.0392V14.9924H32.1501L34.5841 21.0392H25.1719ZM35.7188 33.9767C34.5557 33.9767 33.6094 34.923 33.6094 36.0861C33.6094 37.2493 34.5557 38.1955 35.7188 38.1955C36.8818 38.1955 37.8281 37.2493 37.8281 36.0861C37.8281 34.923 36.8818 33.9767 35.7188 33.9767ZM35.7188 36.7892C35.331 36.7892 35.0156 36.4739 35.0156 36.0861C35.0156 35.6984 35.331 35.383 35.7188 35.383C36.1065 35.383 36.4219 35.6984 36.4219 36.0861C36.4219 36.4739 36.1065 36.7892 35.7188 36.7892ZM12.0234 13.5861H10.3359C9.63806 13.5861 9.07031 14.1539 9.07031 14.8517V17.6642H6.25781C5.55994 17.6642 4.99219 18.232 4.99219 18.9299V20.6174C4.99219 21.3152 5.55994 21.883 6.25781 21.883H9.07031V24.6955C9.07031 25.3934 9.63806 25.9611 10.3359 25.9611H12.0234C12.7213 25.9611 13.2891 25.3934 13.2891 24.6955V21.883H16.1016C16.7994 21.883 17.3672 21.3152 17.3672 20.6174V18.9299C17.3672 18.232 16.7994 17.6642 16.1016 17.6642H13.2891V14.8517C13.2891 14.1539 12.7213 13.5861 12.0234 13.5861ZM15.9609 19.0705V20.4767H12.8672C12.3244 20.4767 11.8828 20.9183 11.8828 21.4611V24.5549H10.4766V21.4611C10.4766 20.9183 10.035 20.4767 9.49219 20.4767H6.39844V19.0705H9.49219C10.035 19.0705 10.4766 18.6289 10.4766 18.0861V14.9924H11.8828V18.0861C11.8828 18.6289 12.3244 19.0705 12.8672 19.0705H15.9609ZM11.1797 33.9767C10.0166 33.9767 9.07031 34.923 9.07031 36.0861C9.07031 37.2493 10.0166 38.1955 11.1797 38.1955C12.3428 38.1955 13.2891 37.2493 13.2891 36.0861C13.2891 34.923 12.3428 33.9767 11.1797 33.9767ZM11.1797 36.7892C10.7919 36.7892 10.4766 36.4739 10.4766 36.0861C10.4766 35.6984 10.7919 35.383 11.1797 35.383C11.5674 35.383 11.8828 35.6984 11.8828 36.0861C11.8828 36.4739 11.5674 36.7892 11.1797 36.7892Z" fill="#ED1C24"/>
</svg>
