<svg width="50" height="51" viewBox="0 0 50 51" fill="none" xmlns="http://www.w3.org/2000/svg">
<g clip-path="url(#clip0_3728_14830)">
<path d="M16.905 25.4492H16.8831C15.4247 25.446 14.1792 26.5007 13.9422 27.9397C13.9139 28.1042 13.8999 28.2709 13.9004 28.4379H15.8928C15.8921 28.3838 15.8964 28.3298 15.9058 28.2765C15.9781 27.7912 16.3984 27.4343 16.889 27.4416H16.897C17.1574 27.4364 17.4082 27.5404 17.5884 27.7286C17.7332 27.8665 17.8287 28.0481 17.8603 28.2456L19.8318 27.9557C19.6023 26.5158 18.363 25.4546 16.905 25.4492Z" fill="#FF6A22"/>
<path d="M34.1157 22.1719C34.1175 22.2218 34.1153 22.2717 34.1088 22.3213C34.0206 22.8011 33.6063 23.152 33.1185 23.1601C32.8564 23.1665 32.6035 23.0627 32.4212 22.8742C32.2761 22.736 32.1802 22.554 32.1482 22.3562L30.1777 22.6481C30.408 24.0892 31.6501 25.1503 33.1096 25.1525H33.1225C34.5816 25.1556 35.8282 24.1014 36.0673 22.662C36.0951 22.5001 36.1087 22.3361 36.1082 22.1719H34.1157V22.1719Z" fill="#FF6A22"/>
<path d="M42.6346 4.88224C42.2523 4.4865 41.6217 4.47554 41.2259 4.85784C41.2176 4.86581 41.2095 4.87403 41.2015 4.88224L35.5658 10.5168C35.1701 10.899 35.1591 11.5297 35.5414 11.9254C35.9237 12.3212 36.5543 12.3321 36.9501 11.9499C36.9584 11.9419 36.9665 11.9337 36.9745 11.9254L42.61 6.29088C43.0058 5.90871 43.0167 5.27799 42.6346 4.88224Z" fill="#FF6A22"/>
<path d="M34.8612 12.628C34.4722 12.2388 33.8413 12.2385 33.4521 12.6275L32.7478 13.3319C32.3582 13.7204 32.3574 14.3512 32.746 14.7408C32.9331 14.9283 33.1872 15.0336 33.4521 15.0334C33.7163 15.0334 33.9696 14.9283 34.1564 14.7415L34.8607 14.0372C35.25 13.6483 35.2502 13.0173 34.8612 12.628Z" fill="#FF6A22"/>
<path d="M14.4352 38.6945C14.0465 38.3053 13.4156 38.3049 13.0264 38.6938C13.0261 38.694 13.0259 38.6943 13.0256 38.6945L7.39006 44.3291C6.99431 44.7113 6.98335 45.342 7.36565 45.7377C7.74782 46.1335 8.37854 46.1444 8.77429 45.7621C8.78263 45.7542 8.79073 45.7459 8.7987 45.7377L14.4352 40.1032C14.8241 39.7142 14.8241 39.0835 14.4352 38.6945Z" fill="#FF6A22"/>
<path d="M17.2513 35.8741C16.8622 35.4849 16.2314 35.4846 15.8421 35.8736L15.1378 36.578C14.7485 36.967 14.7483 37.5978 15.1373 37.9871C15.5263 38.3764 16.1572 38.3766 16.5465 37.9876L17.2508 37.2833C17.64 36.8944 17.6403 36.2634 17.2513 35.8741Z" fill="#FF6A22"/>
<path d="M49.6558 7.69915L42.6116 0.654953C42.2226 0.266057 41.592 0.266057 41.2029 0.654953L35.674 6.18391C25.1188 0.281001 11.7767 4.05252 5.87374 14.6079C2.15975 21.2491 2.15962 29.3423 5.87337 35.9835L0.344406 41.5125C-0.0444894 41.9015 -0.0444894 42.5321 0.344406 42.9211L7.3886 49.9653C7.77762 50.3542 8.40822 50.3542 8.79724 49.9653L14.3232 44.4374C24.8822 50.3382 38.2255 46.562 44.1264 36.0031C47.8366 29.3642 47.8371 21.2761 44.1278 14.6367L49.6568 9.10779C50.0454 8.71852 50.045 8.08792 49.6558 7.69915ZM8.09392 47.8524L2.45936 42.2168L11.6165 33.0587C11.8033 32.8719 11.9084 32.6186 11.9084 32.3543V28.4382C11.9085 28.1614 11.9296 27.8851 11.9712 27.6114C12.4248 24.8981 14.9922 23.0663 17.7055 23.5201C18.729 23.6912 19.6735 24.1777 20.4071 24.9117C21.1572 25.654 21.6465 26.6194 21.8018 27.6632C21.8656 28.098 22.2068 28.4396 22.6416 28.504C23.6856 28.6586 24.6512 29.148 25.3931 29.8987C26.329 30.8349 26.855 32.1044 26.8555 33.4282C26.8557 33.7289 26.8289 34.029 26.7758 34.3248C26.7402 34.4867 26.6963 34.6466 26.6443 34.804C26.6095 34.9246 26.5885 35.0511 26.5447 35.1676C25.9244 36.8335 24.4623 38.0417 22.7093 38.3366C22.4325 38.3805 22.1528 38.4028 21.8725 38.4033H17.9564C17.6921 38.4033 17.4389 38.5084 17.2521 38.6952L8.09392 47.8524ZM39.089 39.3995C32.945 45.5768 23.4926 47.029 15.7777 42.9809L18.3678 40.3957H21.8725C22.2568 40.3951 22.6404 40.3651 23.0201 40.3061H23.0321C23.6517 40.202 24.2548 40.0157 24.8253 39.7522C27.2858 38.6125 28.8587 36.1458 28.8539 33.4342C28.8539 33.4163 28.8539 33.3994 28.8539 33.3814C28.8316 30.2263 26.6938 27.4793 23.6408 26.6829C22.8379 23.6097 20.0618 21.4661 16.8855 21.4668C13.4752 21.464 10.5651 23.9325 10.0116 27.2976C9.95297 27.677 9.92333 28.0603 9.92296 28.4442V31.9479L7.33281 34.538C2.23895 24.7787 6.02118 12.7377 15.7805 7.64386C21.5564 4.62908 28.4412 4.62746 34.2186 7.63938L31.6285 10.2245H28.1288C27.7405 10.2253 27.3529 10.2559 26.9692 10.3162C26.3496 10.4203 25.7465 10.6066 25.176 10.8701C22.7155 12.0097 21.1426 14.4765 21.1474 17.188C21.1474 17.206 21.1474 17.2229 21.1474 17.2408C21.1697 20.396 23.3075 23.143 26.3605 23.9394C27.1561 26.9895 29.8989 29.1267 33.0511 29.1525H33.1109C36.5211 29.1553 39.4312 26.6868 39.9847 23.3217C40.0433 22.9423 40.073 22.559 40.0734 22.1751V18.6784L42.6635 16.0882C46.7136 23.8016 45.2642 33.254 39.089 39.3995ZM38.3847 17.5616C38.1979 17.7484 38.0928 18.0017 38.0928 18.2659V22.182C38.0926 22.4589 38.0716 22.7352 38.03 23.0089C37.8908 23.8179 37.5537 24.58 37.0487 25.2274C37.0109 25.2773 36.981 25.335 36.9402 25.3829C36.8293 25.5069 36.7123 25.6253 36.5895 25.7375C36.5038 25.8212 36.4281 25.9148 36.3374 25.9915C36.2468 26.0683 36.1382 26.128 36.0456 26.1988C35.9111 26.2984 35.7826 26.398 35.6381 26.4867C35.5524 26.5375 35.4568 26.5703 35.3681 26.6152C35.2035 26.7051 35.0339 26.7856 34.8601 26.8563C34.7864 26.8831 34.7067 26.8951 34.6319 26.919C34.4305 26.9879 34.2249 27.0442 34.0163 27.0874C33.9167 27.1053 33.8061 27.1033 33.7015 27.1153C33.5101 27.1442 33.3172 27.1615 33.1237 27.1671C31.8003 27.1683 30.5307 26.6437 29.5941 25.7086C28.844 24.9663 28.3547 24.0009 28.1994 22.9571C28.1355 22.5222 27.7943 22.1807 27.3596 22.1163C26.3156 21.9616 25.35 21.4722 24.6081 20.7216C22.6601 18.7791 22.6558 15.6252 24.5982 13.6774C25.3295 12.9442 26.271 12.457 27.2919 12.2837C27.5697 12.2397 27.8505 12.2175 28.1317 12.217H32.0478C32.312 12.217 32.5653 12.1119 32.7521 11.9251L41.9102 2.76791L47.5448 8.40347L38.3847 17.5616Z" fill="#FF6A22"/>
</g>
<defs>
<clipPath id="clip0_3728_14830">
<rect width="49.8953" height="49.8953" fill="white" transform="translate(0.0527344 0.363281)"/>
</clipPath>
</defs>
</svg>
