<svg width="51" height="51" viewBox="0 0 51 51" fill="none" xmlns="http://www.w3.org/2000/svg">
<g clip-path="url(#clip0_3728_4427)">
<path d="M29.5839 44.023C26.0027 44.023 22.4966 42.9953 19.4821 41.0618C16.4676 39.1283 14.0713 36.3703 12.5778 33.1154C11.0843 29.8604 10.5563 26.2451 11.0565 22.699C11.5567 19.1528 13.064 15.8247 15.3996 13.1098L16.5808 14.1233C13.7415 17.4215 12.2632 21.6762 12.4456 26.0243C12.628 30.3725 14.4575 34.4884 17.563 37.5372C20.6685 40.5861 24.8175 42.3395 29.1682 42.4417C33.519 42.544 37.7457 40.9876 40.9911 38.088C44.2364 35.1885 46.2574 31.1631 46.6439 26.8284C47.0305 22.4936 45.7537 18.1741 43.0726 14.7461C40.3915 11.3181 36.5068 9.0383 32.2066 8.36915C27.9064 7.69999 23.5127 8.69159 19.9167 11.1428L19.0365 9.85645C21.4563 8.20547 24.2298 7.14569 27.1339 6.76242C30.038 6.37914 32.9916 6.68308 35.7568 7.64977C38.5219 8.61647 41.0215 10.2189 43.0543 12.3281C45.0871 14.4372 46.5962 16.9942 47.4603 19.7932C48.3243 22.5922 48.5192 25.5549 48.029 28.4429C47.5389 31.3309 46.3776 34.0635 44.6385 36.4207C42.8994 38.7778 40.6311 40.6938 38.0163 42.0142C35.4015 43.3347 32.5132 44.0227 29.5839 44.023V44.023Z" fill="#2DBF78"/>
<path d="M17.6559 12.9928L16.5645 11.8701C17.0003 11.4476 17.4602 11.043 17.9319 10.668L18.9033 11.8873C18.4737 12.2319 18.0527 12.603 17.6559 12.9928Z" fill="#2DBF78"/>
<path d="M15.5507 34.6678C12.8837 34.6678 10.873 30.6457 10.873 25.3124C10.873 19.9791 12.8837 15.957 15.5507 15.957C18.2178 15.957 20.2284 19.9791 20.2284 25.3124C20.2284 30.6457 18.2178 34.6678 15.5507 34.6678ZM15.5507 17.5163C14.078 17.5163 12.4323 20.8499 12.4323 25.3124C12.4323 29.7749 14.078 33.1085 15.5507 33.1085C17.0234 33.1085 18.6692 29.7749 18.6692 25.3124C18.6692 20.8499 17.0234 17.5163 15.5507 17.5163Z" fill="#2DBF78"/>
<path d="M29.5847 46.3609C25.4215 46.3609 21.3518 45.1263 17.8902 42.8134C14.4286 40.5004 11.7307 37.2129 10.1375 33.3666C8.54428 29.5203 8.12743 25.2879 8.93963 21.2047C9.75183 17.1215 11.7566 13.3708 14.7004 10.427C17.6443 7.48317 21.3949 5.47839 25.4782 4.66619C29.5614 3.85399 33.7937 4.27084 37.64 5.86403C41.4864 7.45722 44.7739 10.1552 47.0868 13.6168C49.3998 17.0784 50.6343 21.1481 50.6343 25.3113C50.6281 30.8921 48.4084 36.2425 44.4622 40.1888C40.516 44.135 35.1655 46.3547 29.5847 46.3609V46.3609ZM29.5847 5.82096C25.7299 5.82096 21.9616 6.96404 18.7565 9.10567C15.5513 11.2473 13.0532 14.2913 11.578 17.8527C10.1028 21.4141 9.71685 25.3329 10.4689 29.1137C11.2209 32.8944 13.0772 36.3673 15.803 39.093C18.5288 41.8188 22.0016 43.6751 25.7824 44.4271C29.5631 45.1792 33.482 44.7932 37.0434 43.318C40.6048 41.8428 43.6487 39.3447 45.7904 36.1395C47.932 32.9344 49.0751 29.1661 49.0751 25.3113C49.0693 20.1439 47.014 15.1898 43.3601 11.5359C39.7062 7.88203 34.7521 5.82673 29.5847 5.82096V5.82096Z" fill="#2DBF78"/>
<path d="M12.4332 37.0056H10.8739C6.93923 37.0056 3.85742 31.8687 3.85742 25.3114C3.85742 18.7541 6.93923 13.6172 10.8739 13.6172H12.4332V15.1764H10.8739C7.91609 15.1764 5.41665 19.8175 5.41665 25.3114C5.41665 30.8053 7.91609 35.4464 10.8739 35.4464H12.4332V37.0056Z" fill="#2DBF78"/>
<path d="M8.53442 36.2276C4.23563 36.2276 0.738281 31.3316 0.738281 25.313C0.738281 19.2944 4.23563 14.3984 8.53442 14.3984V15.9577C5.09554 15.9577 2.29751 20.1543 2.29751 25.313C2.29751 30.4717 5.09554 34.6684 8.53442 34.6684V36.2276Z" fill="#2DBF78"/>
<path d="M24.906 49.4806H23.3468C23.3468 47.9058 20.8521 47.2829 20.8263 47.2767C12.0315 44.2424 6.55939 36.2225 6.32551 35.8834C6.24019 35.7541 6.1949 35.6025 6.19532 35.4476V34.668H7.75454V35.2012C8.63083 36.4198 13.7576 43.1899 21.2621 45.7814C21.3401 45.7954 24.906 46.674 24.906 49.4806Z" fill="#2DBF78"/>
<path d="M7.75454 15.9572H6.19531V15.1776C6.19559 15.0224 6.2417 14.8708 6.32785 14.7418C6.55705 14.4026 12.0315 6.38275 20.7507 3.36955C20.852 3.34226 23.3468 2.71935 23.3468 1.14453H24.906C24.906 3.95114 21.3401 4.82976 21.1881 4.86485C13.7529 7.43757 8.63005 14.2054 7.75454 15.4239V15.9572Z" fill="#2DBF78"/>
<path d="M34.261 37.7861H31.1426V36.2268H34.0451L37.5627 34.1156L39.0206 31.2007C39.0853 31.0711 39.1849 30.9621 39.3082 30.8859C39.4314 30.8098 39.5735 30.7695 39.7183 30.7695H46.7348V32.3288H40.2001L38.8608 35.0161C38.7944 35.1486 38.6916 35.2595 38.5645 35.3357L34.6664 37.6746C34.5441 37.7482 34.4038 37.7867 34.261 37.7861Z" fill="#2DBF78"/>
<path d="M31.3892 41.6453L30.8965 40.1641L32.8291 39.5193L33.5051 36.8164L35.0175 37.1937L34.2379 40.3122C34.2065 40.4396 34.1432 40.5569 34.054 40.6532C33.9648 40.7495 33.8527 40.8215 33.728 40.8626L31.3892 41.6453Z" fill="#2DBF78"/>
<path d="M31.1442 33.8883H27.2461V32.329H30.9602L33.9141 30.8478C34.0227 30.7952 34.142 30.7685 34.2626 30.7698H36.9055L35.4203 29.8787C35.2932 29.8025 35.1904 29.6916 35.1241 29.5591L33.7808 26.8717H30.3645V25.3125H34.2626C34.4082 25.3117 34.551 25.3517 34.675 25.4279C34.799 25.5041 34.8992 25.6134 34.9643 25.7436L36.4221 28.6586L40.1253 30.8813C40.2716 30.9693 40.385 31.1029 40.4481 31.2616C40.5111 31.4202 40.5204 31.5952 40.4743 31.7597C40.4283 31.9241 40.3295 32.0688 40.1932 32.1717C40.0569 32.2746 39.8907 32.3298 39.7199 32.329H34.4466L31.4926 33.8103C31.3841 33.8629 31.2648 33.8896 31.1442 33.8883Z" fill="#2DBF78"/>
<path d="M33.563 26.4402L32.0037 23.3218C31.9498 23.2135 31.9218 23.0942 31.9219 22.9733V21.4141H33.4811V22.7893L34.9624 25.7433L33.563 26.4402Z" fill="#2DBF78"/>
<path d="M30.4034 33.357L29.8008 31.5514H26.4648V29.9922H30.3629C30.5265 29.9923 30.6858 30.0439 30.8185 30.1396C30.9511 30.2353 31.0503 30.3703 31.102 30.5254L31.8816 32.8643L30.4034 33.357Z" fill="#2DBF78"/>
<path d="M33.6124 31.9808L32.2847 29.9889H31.1426V28.4297H32.7018C32.8301 28.4297 32.9565 28.4613 33.0696 28.5218C33.1828 28.5824 33.2792 28.6699 33.3504 28.7766L34.9097 31.1155L33.6124 31.9808Z" fill="#2DBF78"/>
<path d="M46.9643 28.2012L43.2946 24.5315H40.4989C40.343 24.5316 40.1907 24.4849 40.0616 24.3975C39.9325 24.31 39.8325 24.1859 39.7747 24.0411L38.4119 20.6334H33.4824V19.0742H38.9397C39.0956 19.0742 39.248 19.1209 39.3771 19.2083C39.5062 19.2957 39.6061 19.4198 39.664 19.5646L41.0267 22.9723H43.6174C43.8241 22.9723 44.0224 23.0545 44.1686 23.2007L48.0667 27.0988L46.9643 28.2012Z" fill="#2DBF78"/>
<path d="M38.1821 20.0432L37.4547 17.1352L34.4922 14.1727L35.5946 13.0703L38.713 16.1888C38.813 16.2888 38.8838 16.4141 38.9181 16.5513L39.6977 19.6697L38.1821 20.0432Z" fill="#2DBF78"/>
<path d="M38.1601 15.957H33.4824V17.5163H38.1601V15.957Z" fill="#2DBF78"/>
<path d="M40.4982 27.6514H37.3797C37.2342 27.6522 37.0913 27.6123 36.9673 27.5361C36.8433 27.4599 36.7431 27.3505 36.6781 27.2203L35.8984 25.6611L37.2939 24.9641L37.8615 26.0922H40.1754L42.837 23.4306V20.8189L41.3557 17.8649L42.7512 17.168L44.3105 20.2864C44.3658 20.3943 44.3951 20.5137 44.3962 20.6349V23.7534C44.3962 23.9601 44.314 24.1584 44.1678 24.3046L41.0493 27.423C40.9032 27.5692 40.7049 27.6514 40.4982 27.6514V27.6514Z" fill="#2DBF78"/>
<path d="M40.8477 26.1718L40.1504 27.5664L46.3871 30.6848L47.0844 29.2901L40.8477 26.1718Z" fill="#2DBF78"/>
<path d="M37.1512 39.1172L36.0488 38.0148L37.3796 36.684V34.668H38.9389V37.0068C38.9388 37.2136 38.8566 37.4118 38.7104 37.558L37.1512 39.1172Z" fill="#2DBF78"/>
<path d="M10.874 29.9889C8.53516 29.9889 8.53516 26.7146 8.53516 25.3112C8.53516 23.9079 8.53516 20.6336 10.874 20.6336C11.1599 20.6016 11.4487 20.6595 11.7002 20.7992C11.9517 20.939 12.1534 21.1535 12.2773 21.4132H12.4332V22.9724H11.6536C11.4468 22.9724 11.2485 22.8903 11.1023 22.7441C10.9561 22.5979 10.874 22.3996 10.874 22.1928C10.3711 22.1928 10.0944 23.3006 10.0944 25.3112C10.0944 27.3219 10.3711 28.4297 10.874 28.4297C10.874 28.2229 10.9561 28.0246 11.1023 27.8784C11.2485 27.7322 11.4468 27.6501 11.6536 27.6501H12.4332V29.2093H12.2773C12.1534 29.4689 11.9517 29.6835 11.7002 29.8232C11.4487 29.963 11.1599 30.0209 10.874 29.9889V29.9889Z" fill="#2DBF78"/>
</g>
<defs>
<clipPath id="clip0_3728_4427">
<rect width="49.8953" height="49.8953" fill="white" transform="translate(0.738281 0.363281)"/>
</clipPath>
</defs>
</svg>
