<svg width="51" height="51" viewBox="0 0 51 51" fill="none" xmlns="http://www.w3.org/2000/svg">
<path d="M29.8567 28.3903L28.5703 29.6767C29.0771 28.6242 28.7262 27.3379 27.7517 26.7142C26.6603 26.0125 25.179 26.2854 24.4774 27.3768L19.7997 34.4713L17.8506 34.6272L21.203 29.6767C21.9826 28.5073 21.6707 26.9481 20.5403 26.1684C19.5268 25.4668 18.2015 25.6227 17.3439 26.4803L2.72613 41.0591C2.45327 41.3319 2.45327 41.7607 2.72613 42.0336C2.999 42.3064 3.42779 42.3064 3.70065 42.0336L18.2794 27.4548C18.7472 27.026 19.4488 27.026 19.9166 27.4548C20.3064 27.8446 20.3844 28.4683 20.0725 28.9361L15.8626 35.056C15.5508 35.5238 15.9016 36.1475 16.4863 36.1085L24.4384 35.5238C24.5553 35.5238 24.7502 35.4458 24.8672 35.3289L30.8312 29.4038C31.221 29.014 31.8447 29.014 32.2345 29.4038C32.6243 29.7936 32.6243 30.4173 32.2345 30.8071L25.218 37.8237C24.6723 38.3694 24.0486 38.7982 23.3469 39.071L12.9781 43.3979C12.9001 43.4369 12.8221 43.4759 12.7442 43.5538L8.96304 47.335C8.69018 47.6078 8.69018 48.0366 8.96304 48.3095C9.23591 48.5823 9.66469 48.5823 9.93756 48.3095L13.6017 44.6453L23.8537 40.3964C24.7112 40.0456 25.4908 39.4998 26.1535 38.8372L33.209 31.7817C34.1446 30.8461 34.1446 29.3649 33.209 28.4293C32.2735 27.4938 30.7922 27.4938 29.8567 28.3903V28.3903ZM25.6078 28.1565C25.9196 27.6887 26.5433 27.5717 27.0111 27.8836C27.4789 28.1954 27.5958 28.8191 27.284 29.2869L24.0486 34.1985L21.5148 34.3934L25.6078 28.1565Z" fill="#F54A65"/>
<path d="M48.6455 8.58601C48.3726 8.31314 47.9438 8.31314 47.671 8.58601L33.0922 23.1648C32.6244 23.5936 31.9228 23.5936 31.455 23.1648C31.0652 22.775 30.9872 22.1513 31.2991 21.6835L35.509 15.5635C35.8208 15.0958 35.47 14.4721 34.8853 14.5111L26.9332 15.1348C26.8163 15.1348 26.6214 15.2127 26.5045 15.3297L20.5404 21.2547C20.1506 21.6445 19.5269 21.6445 19.1371 21.2547C18.7473 20.8649 18.7473 20.2412 19.1371 19.8514L26.1926 12.7959C26.7383 12.2502 27.362 11.8214 28.0637 11.5485L38.4325 7.22168C38.5105 7.1827 38.5885 7.14372 38.6664 7.06576L42.4476 3.28463C42.7204 3.01177 42.7204 2.58298 42.4476 2.31012C42.1747 2.03725 41.7459 2.03725 41.473 2.31012L37.7699 6.01328L27.518 10.2622C26.6604 10.613 25.8808 11.1587 25.2181 11.8214L18.1626 18.8769C17.2271 19.8124 17.2271 21.2937 18.1626 22.2292C19.0981 23.1648 20.5794 23.1648 21.5149 22.2292L22.8013 20.9429C22.2556 22.1123 22.7623 23.5546 23.9317 24.1003C24.9842 24.6071 26.2706 24.2562 26.9332 23.2817L31.6109 16.1872L33.56 16.0313L30.2076 20.9819C29.428 22.1513 29.7399 23.7105 30.8703 24.4901C31.8838 25.1918 33.2091 25.0359 34.0667 24.1783L48.6455 9.5995C48.9183 9.28766 48.9183 8.85887 48.6455 8.58601V8.58601ZM25.7638 22.4631C25.452 22.9309 24.8283 23.0478 24.3605 22.736C23.8927 22.4241 23.7758 21.8005 24.0877 21.3327L27.323 16.4211L29.8568 16.2262L25.7638 22.4631Z" fill="#F54A65"/>
</svg>
