<svg width="36" height="36" viewBox="0 0 36 36" fill="none" xmlns="http://www.w3.org/2000/svg">
<path d="M18 0C9.27668 0 2.17969 7.09699 2.17969 15.8203C2.17969 16.787 2.17969 24.2654 2.17969 24.3984C2.17969 26.1431 3.59909 27.5625 5.34375 27.5625H6.57984C7.01522 28.79 8.18754 29.6719 9.5625 29.6719C11.3072 29.6719 12.7266 28.2525 12.7266 26.5078V17.9297C12.7266 16.185 11.3072 14.7656 9.5625 14.7656C8.18754 14.7656 7.01522 15.6475 6.57984 16.875H5.34375C4.97398 16.875 4.61918 16.9393 4.28906 17.0564V15.8203C4.28906 8.2601 10.4398 2.10938 18 2.10938C25.5602 2.10938 31.7109 8.2601 31.7109 15.8203V17.0564C31.3808 16.9393 31.026 16.875 30.6562 16.875H29.4202C28.9848 15.6475 27.8125 14.7656 26.4375 14.7656C24.6928 14.7656 23.2734 16.185 23.2734 17.9297V26.5078C23.2734 28.2525 24.6928 29.6719 26.4375 29.6719C26.7568 29.6719 27.065 29.6239 27.3559 29.5355C26.9613 30.8336 25.7535 31.7812 24.3281 31.7812H20.9827C20.5473 30.5537 19.375 29.6719 18 29.6719C16.2553 29.6719 14.8359 31.0913 14.8359 32.8359C14.8359 34.5806 16.2553 36 18 36C19.375 36 20.5473 35.1181 20.9827 33.8906H24.3281C27.2359 33.8906 29.6016 31.525 29.6016 28.6172V27.5625H30.6562C32.4009 27.5625 33.8203 26.1431 33.8203 24.3984C33.8203 24.2674 33.8203 16.7863 33.8203 15.8203C33.8203 7.09699 26.7233 0 18 0ZM8.50781 17.9297C8.50781 17.3481 8.98095 16.875 9.5625 16.875C10.1441 16.875 10.6172 17.3481 10.6172 17.9297V26.5078C10.6172 27.0894 10.1441 27.5625 9.5625 27.5625C8.98095 27.5625 8.50781 27.0894 8.50781 26.5078V17.9297ZM5.34375 18.9844H6.39844V25.4531H5.34375C4.7622 25.4531 4.28906 24.98 4.28906 24.3984V20.0391C4.28906 19.4575 4.7622 18.9844 5.34375 18.9844ZM18 33.8906C17.4184 33.8906 16.9453 33.4175 16.9453 32.8359C16.9453 32.2544 17.4184 31.7812 18 31.7812C18.5816 31.7812 19.0547 32.2544 19.0547 32.8359C19.0547 33.4175 18.5816 33.8906 18 33.8906ZM27.4922 26.5078C27.4922 27.0894 27.0191 27.5625 26.4375 27.5625C25.8559 27.5625 25.3828 27.0894 25.3828 26.5078V17.9297C25.3828 17.3481 25.8559 16.875 26.4375 16.875C27.0191 16.875 27.4922 17.3481 27.4922 17.9297V26.5078ZM31.7109 24.3984C31.7109 24.98 31.2378 25.4531 30.6562 25.4531H29.6016V18.9844H30.6562C31.2378 18.9844 31.7109 19.4575 31.7109 20.0391V24.3984Z" fill="white"/>
</svg>
