<svg width="50" height="51" viewBox="0 0 50 51" fill="none" xmlns="http://www.w3.org/2000/svg">
<g clip-path="url(#clip0_3728_14807)">
<path d="M36.9718 22.8181C37.0273 22.5436 37.0554 22.2644 37.0561 21.9845C36.9229 19.9418 35.9753 18.0382 34.4258 16.7006C34.5175 16.7107 34.6033 16.7162 34.6977 16.7286C36.1588 16.9245 37.5314 15.9839 37.8761 14.5506C38.2208 13.1173 37.4257 11.6555 36.0352 11.1657C34.9595 10.764 33.8372 10.5 32.6952 10.38C32.8236 9.82199 32.8916 9.2517 32.8982 8.67908C32.8982 6.42065 31.2516 4.37418 28.7402 3.43299V2.85803C28.7402 1.48027 27.6232 0.363281 26.2455 0.363281C24.8677 0.363281 23.7507 1.48017 23.7507 2.85803V3.00099C23.475 3.04894 23.2069 3.10897 22.9464 3.18128L22.5127 2.09791C22.0748 1.00266 20.8555 0.442606 19.7394 0.82403C18.6231 1.20545 18.0016 2.39465 18.3256 3.52879L18.9948 5.87161C18.576 6.4263 18.2164 7.02329 17.9219 7.65292C17.8882 5.77737 17.3788 3.9412 16.4416 2.3162C15.7444 1.1118 14.4599 0.368056 13.068 0.363379H9.80265C9.16094 0.363963 8.57477 0.727651 8.28924 1.30242C8.0037 1.87718 8.06792 2.56392 8.455 3.07583C9.36295 4.28666 10.4454 6.09682 10.4454 7.84772V19.0576C8.89031 20.7231 7.11914 23.8466 7.11914 29.4688C7.11914 36.8922 8.01569 38.2646 8.89275 38.6276C9.03786 38.6881 9.19358 38.7193 9.35077 38.7194C9.39755 38.717 9.44413 38.7118 9.49022 38.7038C9.76864 39.3256 10.0878 39.9284 10.4455 40.5083V46.5162C10.4388 48.1065 11.4421 49.5258 12.9435 50.0501C14.4449 50.5744 16.1136 50.0881 17.0982 48.8393C17.8488 49.7975 19.0225 50.3254 20.2374 50.2515C21.4523 50.1776 22.5533 49.5111 23.1821 48.469C23.6455 48.5428 24.1133 48.585 24.5825 48.5953C27.042 48.6033 29.49 48.9332 31.8641 49.5763C33.2846 49.9798 34.7489 50.2089 36.2247 50.2585C38.2249 50.2585 42.8774 49.2864 42.8774 40.2795C42.8772 36.1171 40.8062 28.6443 36.9718 22.8181ZM35.3929 21.9846C35.4 22.1911 35.3845 22.3978 35.3468 22.6009C35.3249 22.6381 35.306 22.6769 35.2902 22.7171C35.2474 22.8753 35.1645 23.0196 35.0493 23.1361C35.0404 23.1444 35.0303 23.1523 35.0211 23.1605C34.9789 23.1976 34.934 23.2317 34.8869 23.2622C34.8612 23.279 34.8362 23.296 34.8079 23.312C34.732 23.3549 34.6528 23.392 34.5711 23.4227C34.5451 23.4326 34.5141 23.4408 34.4864 23.4501C34.3919 23.4814 34.2959 23.5077 34.1987 23.529C34.1677 23.5359 34.1383 23.5433 34.1057 23.5496C33.9673 23.5764 33.8113 23.5984 33.6366 23.6146C33.6033 23.6178 33.5673 23.6199 33.5326 23.6226C33.3413 23.6374 33.1354 23.6477 32.8981 23.6477C32.7443 23.6477 32.5963 23.6401 32.4545 23.6261C32.4438 23.6252 32.4344 23.6228 32.4237 23.6218C32.2932 23.6078 32.1671 23.5896 32.0479 23.5654L32.0199 23.5585C31.9035 23.5339 31.792 23.5056 31.6877 23.4726C31.668 23.4664 31.6507 23.4587 31.6314 23.4523C31.5428 23.4226 31.4576 23.391 31.3788 23.3562C31.3442 23.3408 31.3139 23.3238 31.2814 23.3077C31.2259 23.2802 31.1711 23.2528 31.1215 23.2233C31.0783 23.1973 31.04 23.1701 31.0016 23.1428C30.9714 23.1215 30.9405 23.1006 30.9133 23.0787C30.8734 23.0461 30.8355 23.0113 30.7997 22.9744C30.7837 22.9583 30.7674 22.9423 30.7531 22.9261C30.7209 22.8895 30.6919 22.8504 30.6661 22.8091C30.6566 22.794 30.6472 22.779 30.6392 22.764C30.6252 22.7386 30.613 22.7123 30.6028 22.6853C30.5807 22.6214 30.5716 22.5537 30.576 22.4862C30.5777 22.4551 30.5818 22.424 30.5883 22.3934C30.5969 22.356 30.6083 22.3192 30.6224 22.2836C30.6397 22.2321 30.6615 22.1822 30.6874 22.1345L30.6987 22.1168C30.779 21.9801 30.8768 21.8545 30.9896 21.7432L30.99 21.7427L30.9903 21.7423L30.9912 21.741L30.9916 21.7405L30.9919 21.7403C31.1231 21.6058 31.2436 21.4614 31.3524 21.3084C31.3714 21.2825 31.3965 21.2599 31.4146 21.2336C31.4531 21.1787 31.4814 21.1193 31.5168 21.0629C31.5203 21.0575 31.5253 21.0538 31.5286 21.0484C31.5485 21.0161 31.5636 20.9817 31.5826 20.9491C31.6731 20.796 31.7539 20.6374 31.8247 20.4743C31.8275 20.468 31.8325 20.4636 31.8351 20.4572C31.8504 20.4207 31.8604 20.3829 31.8748 20.3461C31.9325 20.1986 31.9869 20.0507 32.0302 19.8987C32.0327 19.8907 32.0383 19.8847 32.0406 19.8765L32.0423 19.8716C32.0589 19.812 32.0679 19.7509 32.0821 19.6908C32.1134 19.5614 32.145 19.433 32.1675 19.3023H32.1678L32.1677 19.3004C32.178 19.2402 32.1841 19.18 32.1926 19.1197L32.197 19.1066V19.1058L32.1974 19.1033C32.2064 19.0383 32.2149 18.9734 32.2226 18.9084L32.2239 18.8957L32.2273 18.8675C32.2387 18.7582 32.2457 18.6504 32.2522 18.5417C32.2527 18.5356 32.2564 18.5305 32.2567 18.5243C32.2608 18.4609 32.2636 18.3976 32.266 18.3342L32.2667 18.3024L32.2677 18.2587L32.2694 18.1833C32.2698 18.1557 32.2712 18.1281 32.2713 18.1007V18.0938L32.271 18.0927C32.271 18.0718 32.2694 18.0519 32.2694 18.0312L32.2724 18.0175C32.2727 18.0083 32.2685 17.9991 32.2683 17.9898L32.2673 17.9515C32.2662 17.8195 32.2638 17.6922 32.2574 17.5683C32.2552 17.5265 32.2528 17.4857 32.25 17.4443C32.2453 17.37 32.2427 17.2904 32.2366 17.22C34.0273 18.172 35.2148 19.9647 35.3929 21.9846ZM31.6227 12.0064L31.6243 12.0061C31.7713 12.0055 31.9186 12.0053 32.0665 12.0055C33.2359 12.0625 34.3884 12.3083 35.4794 12.7331C35.8112 12.8482 36.0765 13.102 36.2063 13.4283C36.3375 13.7499 36.3226 14.1126 36.1652 14.4223C35.9329 14.8859 35.4312 15.1503 34.9175 15.0801C33.5653 14.8038 32.1623 14.9202 30.8742 15.4155L30.8704 15.4169L30.8631 15.4195C30.7646 15.4712 30.6777 15.5427 30.6078 15.6292C30.6002 15.6382 30.5882 15.6417 30.5809 15.6509C30.5709 15.6637 30.57 15.6807 30.5607 15.694C30.5059 15.7722 30.4651 15.8592 30.4402 15.9514C30.4351 15.9703 30.4262 15.9868 30.4224 16.0059C30.4023 16.1026 30.3996 16.2021 30.4147 16.2998L30.5593 17.1614C30.5679 17.2376 30.5748 17.3257 30.5821 17.4118C30.5874 17.4786 30.5925 17.5453 30.5963 17.6148C30.6006 17.6881 30.6035 17.7641 30.6057 17.8417C30.6092 17.9924 30.609 18.1461 30.6023 18.3024C30.6011 18.332 30.6 18.3616 30.5984 18.3914C30.5883 18.5822 30.5682 18.7723 30.5384 18.961L30.5328 18.9893C30.5029 19.1648 30.4616 19.3383 30.4092 19.5084C30.4042 19.5248 30.3986 19.5409 30.3932 19.5573C30.385 19.5821 30.3756 19.6065 30.3668 19.6311C30.3206 19.7627 30.265 19.8907 30.2005 20.0144C30.1755 20.0621 30.1513 20.1101 30.1235 20.1557C30.0386 20.302 29.9364 20.4375 29.8194 20.5595L29.8158 20.5641L29.8027 20.5791C29.6944 20.6887 29.5928 20.8046 29.4987 20.9265L29.4938 20.9321L29.493 20.9339L29.4876 20.9401C29.4424 20.9466 29.3969 20.953 29.3511 20.9592C28.9247 21.0167 28.4789 21.0634 28.0081 21.0948C27.9457 21.099 27.8805 21.1013 27.8174 21.105C27.3142 21.1345 26.7933 21.1531 26.2455 21.1531C26.0706 21.1531 25.8845 21.1401 25.6947 21.1208C25.605 21.1115 25.511 21.0968 25.4181 21.0835C25.3177 21.0694 25.2175 21.0555 25.1154 21.0373C25.001 21.0168 24.8851 20.9926 24.7687 20.9672C24.6878 20.9495 24.6071 20.9316 24.5263 20.9119C24.3942 20.8797 24.2624 20.8449 24.1308 20.8077C24.0776 20.7925 24.0252 20.7769 23.9726 20.7611C23.3493 20.5836 22.7519 20.3255 22.1953 19.9933C22.0935 19.8877 21.9843 19.7894 21.8688 19.699C21.8665 19.6699 21.866 19.6406 21.8673 19.6113C21.87 19.5933 21.8802 19.5782 21.8817 19.5597C21.9255 19.2232 22.0168 18.8947 22.153 18.5839C22.1609 18.5647 22.168 18.5464 22.1762 18.5268C22.2462 18.3581 22.3306 18.1781 22.4234 17.9927C22.446 17.9475 22.4691 17.9019 22.493 17.8556C22.5941 17.6608 22.7042 17.4602 22.8279 17.2529L22.8599 17.2001C23.3286 16.4292 23.8632 15.7002 24.4576 15.0215C24.478 14.9982 24.499 14.975 24.5196 14.9517C24.7274 14.7166 24.9432 14.4838 25.1697 14.2574L25.1708 14.2563C25.39 14.0387 25.6205 13.8329 25.8614 13.6397C25.9043 13.6052 25.9471 13.5672 25.99 13.5342C26.1802 13.3882 26.3776 13.2519 26.5816 13.1257C26.6641 13.0741 26.7468 13.0218 26.8294 12.9749C27.0005 12.8773 27.1722 12.7911 27.3442 12.7123C27.4498 12.6641 27.5554 12.6188 27.6613 12.5768C27.8242 12.5124 27.9877 12.4531 28.1523 12.4025C28.2565 12.3702 28.3609 12.3427 28.4652 12.3154C28.6426 12.2697 28.8203 12.2266 29.0004 12.1936C29.0775 12.1791 29.155 12.1684 29.2323 12.1561C29.4436 12.1233 29.6558 12.0934 29.8719 12.0737C29.9051 12.0706 29.9385 12.0689 29.9717 12.066C30.504 12.0215 31.0515 12.0083 31.6227 12.0064ZM17.9297 17.0697C17.9297 12.1403 18.8092 8.61827 20.5438 6.60269C20.7265 6.39073 20.7902 6.10101 20.7132 5.83204L19.9246 3.07252C19.844 2.78981 19.9989 2.49356 20.277 2.39835C20.5551 2.30314 20.8591 2.4424 20.9686 2.71526L21.6942 4.52864C21.7762 4.73357 21.9362 4.89749 22.1391 4.98432C22.342 5.07115 22.5711 5.07378 22.7759 4.99153C23.3783 4.75628 24.0118 4.6104 24.6563 4.55865C25.0852 4.52025 25.4139 4.16095 25.414 3.73032V2.85813C25.414 2.39884 25.7863 2.02658 26.2456 2.02658C26.7049 2.02658 27.0771 2.39884 27.0771 2.85813V4.03319C27.0772 4.40351 27.322 4.72919 27.6777 4.83229C29.8054 5.44701 31.2351 6.99327 31.2351 8.67918C31.2282 9.2441 31.1487 9.80581 30.9988 10.3505L30.9838 10.351C30.4234 10.3597 29.8639 10.398 29.3077 10.4659C29.2704 10.4706 29.2329 10.4745 29.1956 10.4796C28.9598 10.512 28.7225 10.5541 28.4843 10.6039C28.4007 10.6212 28.317 10.6399 28.2335 10.6595C28.018 10.7106 27.8019 10.7684 27.585 10.8376C27.4851 10.8693 27.3853 10.9073 27.2854 10.9431C27.1311 10.9987 26.9767 11.0601 26.822 11.127C26.6911 11.1832 26.5604 11.2429 26.4298 11.3075C26.2525 11.395 26.075 11.4911 25.8976 11.5957C25.8455 11.6264 25.7934 11.6481 25.7414 11.6803C25.9773 10.9702 26.3823 10.3423 27.0772 10.3423C27.5365 10.3423 27.9088 9.96992 27.9088 9.51073C27.9088 9.05144 27.5364 8.67918 27.0772 8.67918C24.6071 8.67918 23.8412 11.4537 23.7589 13.3255C23.6567 13.4323 23.5548 13.5408 23.4521 13.6538C23.383 13.7298 23.3151 13.8059 23.2473 13.883C23.1338 14.0123 23.0211 14.1447 22.9091 14.2805C22.8329 14.3724 22.7563 14.4633 22.6825 14.5562C22.5322 14.7443 22.3851 14.9366 22.2409 15.1329C22.2069 15.1793 22.1744 15.2255 22.141 15.2719C21.3619 16.2923 20.7614 17.4372 20.3652 18.6583H19.8524C19.8313 18.6506 19.8068 18.6425 19.7856 18.6348C19.6765 18.5952 19.5623 18.5559 19.4505 18.5169C19.3009 18.4644 19.1586 18.4136 19.0006 18.3586C18.6672 18.2436 18.3144 18.1217 17.9476 17.9872L17.9299 17.9807V17.0697H17.9297ZM9.80265 2.02658H13.068C13.8667 2.03048 14.6032 2.45809 15.0024 3.1497C15.829 4.57746 16.265 6.19788 16.2665 7.84763V16.4542C15.8453 16.5907 15.4694 16.7307 15.1196 16.8813C14.0552 16.7985 12.9942 17.0779 12.1086 17.6741V7.84763C12.1086 5.6387 10.845 3.49078 9.80265 2.02658ZM10.6051 36.1964L10.6 36.2087C10.4113 36.6598 10.2009 36.8771 9.84202 36.9311C9.83627 36.9319 9.83189 36.9364 9.82624 36.9374C9.75588 36.9475 9.68493 36.9528 9.61389 36.9532C9.57666 36.9532 9.53953 36.9556 9.5026 36.9605C9.26911 36.474 8.78224 34.8182 8.78224 29.4689C8.78224 24.1207 10.4699 21.3638 11.8296 20.0083C11.8391 19.9998 11.8518 19.9968 11.8608 19.9877C13.191 18.6753 14.4802 18.4131 14.9793 18.5527C14.991 18.5561 15.0034 18.5536 15.0153 18.5563C15.0297 18.5615 15.0515 18.5648 15.0629 18.5706C16.1584 19.1006 17.2892 19.5542 18.4472 19.9284C18.5891 19.9772 18.7084 20.0201 18.8377 20.0655C18.963 20.1092 19.0895 20.1536 19.2084 20.1966C19.696 20.3562 20.1648 20.5681 20.6068 20.8288C20.6292 20.8545 20.6436 20.8849 20.6681 20.9094C20.7711 21.0049 20.88 21.0938 20.9942 21.1754C21.0352 21.2227 21.0722 21.2732 21.1049 21.3264C21.1118 21.3385 21.1179 21.3525 21.1244 21.3655C21.1607 21.4393 21.1886 21.5169 21.2078 21.5968C21.213 21.6175 21.2198 21.6346 21.2242 21.6568C21.2457 21.7647 21.2563 21.8745 21.256 21.9846C21.256 24.8626 16.6271 28.6446 14.14 30.6764C13.3555 31.3172 12.7359 31.8231 12.3522 32.2072C12.2493 32.3102 12.1523 32.4191 12.0619 32.5333C12.0536 32.5438 12.047 32.5551 12.0389 32.5656C11.5089 33.3347 11.1376 34.2018 10.9468 35.1161C10.8541 35.4825 10.7399 35.8432 10.6051 36.1964ZM16.2665 46.5162C16.2653 47.6639 15.3352 48.594 14.1876 48.5952C13.0399 48.594 12.1098 47.6639 12.1086 46.5162V42.7225C13.3108 44.0437 14.7141 45.1669 16.2666 46.0505V46.5162H16.2665ZM20.0086 48.5952C19.0134 48.5937 18.1586 47.8879 17.969 46.9109C19.0617 47.4026 20.1946 47.7993 21.3555 48.0965C20.9813 48.4196 20.503 48.5966 20.0086 48.5952ZM29.5939 47.3779C27.9407 47.0749 26.263 46.9257 24.5823 46.9321C24.0162 46.9159 23.4525 46.8509 22.8976 46.7379C22.8901 46.7363 22.8845 46.7304 22.8769 46.7291C20.996 46.3604 19.181 45.712 17.4923 44.8052C17.2664 44.6837 17.049 44.5548 16.8322 44.4255C16.739 44.3698 16.646 44.3161 16.553 44.258C16.3735 44.1462 16.1992 44.0299 16.0262 43.9126C15.8848 43.8167 15.7442 43.7177 15.6043 43.6157C15.4513 43.5045 15.2985 43.3933 15.1511 43.2776C14.9766 43.1411 14.806 42.9952 14.6353 42.8491C14.4206 42.6646 14.2125 42.475 14.011 42.2804C13.874 42.1487 13.7374 42.0162 13.604 41.8775C13.4563 41.723 13.3126 41.5654 13.1732 41.4047C13.0754 41.2931 12.9807 41.1765 12.8856 41.0606C12.6186 40.7339 12.3672 40.3959 12.1315 40.0467C11.7313 39.4659 11.3774 38.8546 11.0732 38.2184C11.0897 38.2076 11.1024 38.1933 11.1185 38.1822C11.2214 38.1128 11.3185 38.0353 11.4088 37.9502C11.4579 37.9032 11.5013 37.8521 11.5461 37.8017C11.6097 37.731 11.6695 37.6571 11.7255 37.5801C11.7628 37.528 11.8001 37.4767 11.8342 37.4224C11.8925 37.3297 11.9455 37.2336 11.9954 37.1354C12.0428 37.0424 12.0863 36.9487 12.1273 36.8527C12.1591 36.778 12.1915 36.7038 12.22 36.6279C12.2591 36.5242 12.2945 36.4217 12.3282 36.3177L12.3477 36.2575C12.4236 36.0181 12.4923 35.7807 12.5528 35.5582C12.6864 34.9573 12.8989 34.3767 13.1846 33.8313C13.2804 33.6685 13.3958 33.5181 13.5282 33.3834C13.853 33.0586 14.4735 32.5519 15.1922 31.9647C15.3711 31.8186 15.5561 31.6673 15.7444 31.5127C16.0663 32.747 16.2416 34.0149 16.2666 35.2903C16.1591 36.9369 16.9776 38.5062 18.3894 39.3605C18.5034 39.4177 18.6293 39.4474 18.7569 39.4474C19.1387 39.4457 19.4705 39.1846 19.562 38.8139C19.6535 38.4432 19.4813 38.0577 19.1442 37.8785C18.4951 37.4471 18.0709 36.75 17.9862 35.9752C18.5156 36.0778 19.0538 36.127 19.5929 36.1219C20.0522 36.1221 20.4246 35.75 20.4249 35.2907C20.4252 34.8315 20.053 34.459 19.5938 34.4587C19.0175 34.4685 18.4434 34.3859 17.8932 34.2142C17.8907 34.2061 17.885 34.1998 17.8822 34.1918C17.7657 32.8856 17.52 31.5944 17.1487 30.3368L17.211 30.2827C17.3664 30.1489 17.5219 30.0151 17.678 29.8774C17.7565 29.8081 17.8346 29.7364 17.9131 29.6663C18.05 29.5439 18.1869 29.422 18.323 29.2969C18.4071 29.2195 18.4895 29.1401 18.5732 29.0618C18.7022 28.9409 18.8316 28.8209 18.9589 28.6978C19.0464 28.6132 19.1312 28.5265 19.2176 28.4409C19.3385 28.3211 19.4601 28.202 19.5783 28.0804C19.6651 27.9912 19.7481 27.9001 19.8332 27.81L19.8533 27.7888C20.0057 28.3262 20.2852 28.819 20.6683 29.2256C21.0583 29.7844 21.2639 30.451 21.2562 31.1324C21.2562 31.5917 21.6285 31.964 22.0877 31.964C22.547 31.964 22.9193 31.5917 22.9193 31.1324C22.9193 31.1005 22.9168 31.0196 22.9117 30.9186C23.1734 31.0475 23.4593 31.1203 23.7508 31.1324C24.2116 31.1331 24.5864 30.7616 24.5897 30.3009C24.5912 30.0811 24.5049 29.8699 24.3502 29.714C24.1954 29.5581 23.9848 29.4703 23.7651 29.4701C23.0395 29.1257 22.3877 28.644 21.8456 28.0515L21.8441 28.0497C21.4537 27.4903 21.2482 26.8226 21.2562 26.1405L21.2543 26.1315C21.3256 26.0349 21.3899 25.9373 21.4576 25.8401C21.5416 25.7197 21.6273 25.5995 21.7055 25.4783C21.7725 25.3745 21.8318 25.2701 21.8942 25.1659C21.9663 25.0455 22.04 24.9254 22.1056 24.8044C22.1632 24.6981 22.2124 24.5914 22.2646 24.4848C22.3233 24.365 22.3836 24.2456 22.435 24.1256C22.4814 24.0175 22.5186 23.9092 22.5587 23.801C22.6031 23.6817 22.649 23.5624 22.6853 23.4428C22.7185 23.334 22.7418 23.2251 22.7682 23.1162C22.797 22.997 22.8273 22.8778 22.8475 22.7586C22.866 22.6492 22.8741 22.54 22.8849 22.4308C22.8937 22.3415 22.912 22.2521 22.9156 22.1629C22.9806 22.1863 23.0499 22.2041 23.1158 22.2266C23.2129 22.2594 23.3096 22.2891 23.4079 22.3196C23.5898 22.3762 23.7698 22.4299 23.9547 22.4782C24.0298 22.4977 24.1032 22.5135 24.1782 22.5316C24.3758 22.5791 24.5709 22.6242 24.7663 22.6605C24.8534 22.6768 24.9353 22.6866 25.0208 22.7004C25.1923 22.7279 25.3636 22.7568 25.5287 22.7739C25.7667 22.8007 26.0059 22.815 26.2454 22.8167C26.6714 22.8167 27.0821 22.8053 27.4849 22.7882C27.6057 22.7831 27.7229 22.7757 27.8416 22.7691C28.1364 22.7526 28.424 22.7313 28.7045 22.7054C28.7722 22.6991 28.846 22.6969 28.9128 22.69L28.9137 22.6946C28.9275 22.8428 28.9567 22.9892 29.0007 23.1314C29.0073 23.1531 29.0144 23.1747 29.0217 23.1964C29.0383 23.246 29.0493 23.2964 29.0696 23.3454C29.0968 23.4109 29.1381 23.47 29.1712 23.533C29.1863 23.5618 29.1936 23.5921 29.21 23.6207C29.2205 23.6387 29.2356 23.6545 29.2465 23.6723C29.2977 23.7544 29.3536 23.8335 29.4139 23.9091C29.4519 23.9577 29.4904 24.0055 29.5322 24.0519C29.5972 24.1237 29.6658 24.1922 29.7377 24.2571C29.788 24.3028 29.8403 24.3467 29.8943 24.3898C29.9697 24.4496 30.0471 24.5072 30.1296 24.5618C30.193 24.6039 30.2594 24.6428 30.3268 24.6816C30.4105 24.7298 30.4945 24.777 30.5841 24.82C30.6618 24.8574 30.7433 24.8903 30.8251 24.9237C30.9137 24.9599 31.0011 24.9965 31.0943 25.0278C31.1891 25.0597 31.2886 25.0854 31.3877 25.1121C31.4762 25.1358 31.5625 25.1622 31.6542 25.1816C31.7008 25.1916 31.7485 25.1993 31.7959 25.2082C31.066 27.3971 30.5985 29.665 30.4035 31.9642C30.4042 32.1576 30.4172 32.3507 30.4423 32.5425C30.3007 32.9605 29.618 34.4589 28.7403 34.4589C28.281 34.4589 27.9088 34.8312 27.9088 35.2905C27.9088 35.7497 28.281 36.122 28.7403 36.122C29.7391 36.072 30.6504 35.5369 31.1807 34.6891C31.37 35.0473 31.5727 35.3906 31.7695 35.7184C32.3997 36.5653 32.7897 37.5666 32.8983 38.6168C32.8241 40.3084 32.2391 41.9378 31.2205 43.2903C30.3414 44.4931 29.7817 45.8996 29.5939 47.3779ZM36.2245 48.5952C34.8802 48.544 33.5471 48.3305 32.2541 47.9593C31.9252 47.88 31.5849 47.7993 31.2376 47.7192C31.3595 46.4261 31.8439 45.1936 32.635 44.1636C33.4715 42.9577 34.0729 41.6047 34.4075 40.1757C35.1113 40.7336 35.721 41.4006 36.2135 42.1517C36.1984 42.7631 35.997 43.3553 35.6365 43.8494C35.4232 44.0588 35.3387 44.3666 35.4152 44.6554C35.4917 44.9444 35.7173 45.17 36.0063 45.2464C36.2952 45.3229 36.6029 45.2385 36.8123 45.0252C37.1178 44.705 37.3545 44.3256 37.5077 43.9104C37.8408 44.2172 38.2675 44.4028 38.719 44.4372C39.1631 44.4371 39.5288 44.0882 39.5497 43.6446C39.5707 43.201 39.2394 42.8192 38.7974 42.7773C38.7288 42.7537 38.3 42.5711 37.7998 41.5706C36.9603 40.2206 35.848 39.0608 34.5342 38.1658C34.341 36.9781 33.8834 35.8489 33.1952 34.8619C32.5649 34.0149 32.175 33.0136 32.0664 31.9635C32.0761 31.4615 32.1241 30.9609 32.2103 30.4662C32.9847 32 34.3681 33.1378 36.0226 33.6014C37.0052 33.8475 37.7499 35.1379 37.9529 35.613C38.1314 36.0361 38.6191 36.2346 39.0423 36.056C39.4654 35.8775 39.6638 35.3898 39.4853 34.9666C39.3789 34.714 38.3861 32.4784 36.4261 31.9887C33.6605 31.2968 32.889 27.6773 32.8813 27.6407C32.8761 27.6146 32.8592 27.5949 32.8516 27.5699C33.0993 26.6376 33.3483 25.8125 33.5096 25.297C33.9708 25.2775 34.4282 25.203 34.8717 25.0748C34.9045 25.0652 34.9373 25.0563 34.97 25.0459C35.037 25.0239 35.103 24.9975 35.1694 24.9715C35.4919 24.8546 35.7924 24.6841 36.0581 24.467C39.4121 29.8958 41.2137 36.5315 41.2137 40.2793C41.214 47.5151 38.0878 48.5952 36.2245 48.5952Z" fill="#F54A65"/>
</g>
<defs>
<clipPath id="clip0_3728_14807">
<rect width="49.8953" height="49.8953" fill="white" transform="translate(0.0527344 0.363281)"/>
</clipPath>
</defs>
</svg>
