<svg width="50" height="42" viewBox="0 0 50 42" fill="none" xmlns="http://www.w3.org/2000/svg">
<path d="M48.0287 12.7492C47.851 12.3868 47.4134 12.237 47.0506 12.4149C46.6881 12.5926 46.5386 13.0306 46.7163 13.393C48.1792 16.3747 48.4862 19.4423 48.4862 21.4907C48.4862 24.2587 47.9119 29.4766 44.0664 33.3222C42.8382 34.5504 41.2053 35.2268 39.4683 35.2268C37.7316 35.2268 36.0986 34.5504 34.8704 33.3222C33.6421 32.094 32.9658 30.4611 32.9658 28.7241C32.9658 27.6168 33.2418 26.5523 33.7593 25.6074C33.7745 25.5842 33.7879 25.56 33.8003 25.5352C34.0879 25.0256 34.4452 24.5512 34.8703 24.1262C35.1245 23.8719 35.3358 23.5945 35.5042 23.2989C35.5068 23.2942 35.5097 23.2898 35.5122 23.285C35.5538 23.2114 35.5932 23.1367 35.6293 23.0608C36.387 23.5215 36.8407 24.2258 37.0638 24.6618C37.1932 24.9145 37.4493 25.0597 37.715 25.0597C37.8271 25.0597 37.9409 25.0338 38.0475 24.9792C38.4069 24.7953 38.5489 24.3549 38.365 23.9956C37.8031 22.8984 36.9678 22.0627 35.9769 21.5898C35.9778 21.5567 35.9793 21.5239 35.9793 21.4907C35.9793 21.3079 35.9661 21.1282 35.9407 20.9521C36.9483 20.4826 37.7945 19.6427 38.3649 18.5286C38.5489 18.1693 38.4067 17.7289 38.0474 17.5449C37.6879 17.3609 37.2477 17.503 37.0637 17.8624C36.8198 18.339 36.3094 19.1203 35.4383 19.5703C35.4051 19.5165 35.3703 19.4634 35.334 19.411C35.3255 19.3983 35.3168 19.3858 35.3074 19.3737C35.1791 19.1924 35.0339 19.0188 34.8703 18.8553C32.3349 16.3199 32.3349 12.1946 34.8703 9.65916C36.0984 8.43097 37.7314 7.75456 39.4682 7.75456C41.2051 7.75456 42.8381 8.43097 44.0664 9.65925C44.3794 9.97227 44.6811 10.3057 44.9632 10.6502C45.2188 10.9627 45.6794 11.0086 45.9917 10.7529C46.3041 10.4971 46.3501 10.0367 46.0944 9.72435C45.7817 9.34234 45.4472 8.97271 45.1001 8.62559C41.9947 5.52019 36.9419 5.52029 33.8367 8.62559C31.2165 11.2458 30.8072 15.2523 32.6086 18.3057L31.6198 17.96C30.5699 17.593 29.6884 16.859 29.1375 15.8929L27.7725 13.4996C27.3847 12.8198 27.1799 12.0469 27.1799 11.2643V2.86619C27.1799 1.6766 26.2679 0.701789 25.1036 0.647021C24.5001 0.61876 23.9294 0.831886 23.494 1.24732C23.0647 1.65691 22.8184 2.23197 22.8184 2.82526V11.2644C22.8184 12.0469 22.6135 12.8199 22.2258 13.4997L20.861 15.8929C20.31 16.8589 19.4284 17.593 18.3786 17.9599L17.3946 18.3038C18.1127 17.0908 18.4966 15.7036 18.4966 14.257C18.4966 12.1297 17.6682 10.1297 16.1639 8.62539C14.6597 7.12113 12.6597 6.29259 10.5323 6.29259C8.40493 6.29259 6.40483 7.12103 4.90066 8.62539C0.682565 12.8437 0.0527344 18.4965 0.0527344 21.4907C0.0527344 24.0897 0.54087 29.059 3.81018 33.1382C4.06258 33.4532 4.52265 33.5039 4.83761 33.2514C5.15258 32.999 5.20325 32.539 4.95085 32.224C1.96094 28.4935 1.51451 23.8979 1.51451 21.4907C1.51451 18.7227 2.0887 13.5048 5.93433 9.65916C7.16252 8.43097 8.79542 7.75456 10.5324 7.75456C12.2693 7.75456 13.9023 8.43097 15.1305 9.65916C16.3586 10.8873 17.0351 12.5202 17.0351 14.2572C17.0351 15.9942 16.3587 17.6271 15.1305 18.8553C14.9671 19.0186 14.8222 19.1918 14.694 19.3728C14.6847 19.3847 14.6761 19.3971 14.6677 19.4096C14.6311 19.4625 14.5959 19.516 14.5624 19.5703C13.6913 19.1203 13.1809 18.339 12.9369 17.8623C12.7529 17.503 12.3124 17.3611 11.9532 17.5449C11.5939 17.7289 11.4519 18.1693 11.6358 18.5286C12.2063 19.6427 13.0525 20.4826 14.0601 20.952C14.0346 21.1282 14.0216 21.3079 14.0216 21.4906C14.0216 21.5238 14.0231 21.5566 14.0239 21.5898C13.0329 22.0627 12.1977 22.8983 11.6358 23.9956C11.4519 24.3549 11.594 24.7953 11.9532 24.9792C12.06 25.0338 12.1737 25.0597 12.2857 25.0597C12.5514 25.0597 12.8075 24.9144 12.9369 24.6618C13.1602 24.2258 13.6137 23.5215 14.3715 23.0608C14.4095 23.1406 14.4511 23.2191 14.4952 23.2965C14.5006 23.3063 14.5062 23.3161 14.512 23.3257C14.6779 23.6112 14.8839 23.8796 15.1304 24.1261C15.5553 24.5509 15.9123 25.025 16.1999 25.5343C16.2126 25.5596 16.2262 25.5843 16.2417 25.608C16.759 26.5527 17.0349 27.6171 17.0349 28.7241C17.0349 30.461 16.3585 32.094 15.1303 33.3222C13.0567 35.3957 9.83503 35.8251 7.29593 34.3663C6.94588 34.1652 6.49916 34.2859 6.29802 34.6359C6.09698 34.986 6.21772 35.4327 6.56767 35.6338C7.80122 36.3424 9.16593 36.6875 10.5224 36.6875C12.5866 36.6875 14.6314 35.8884 16.1638 34.3559C17.6681 32.8516 18.4965 30.8516 18.4965 28.7242C18.4965 27.9174 18.3768 27.1291 18.1468 26.379L18.2498 26.4113C18.8947 26.6133 19.3281 27.2031 19.3281 27.8789V39.7937C19.3281 40.9961 20.3063 41.9743 21.5088 41.9743C22.7112 41.9743 23.6895 40.9961 23.6895 39.7937V27.8789C23.6895 25.2865 22.0274 23.0242 19.5535 22.2491L19.4331 22.2114L19.8177 22.077C21.8611 21.3627 23.577 19.9338 24.6493 18.0535L24.999 17.4405L25.3486 18.0534C26.421 19.9338 28.1369 21.3627 30.1804 22.077L30.566 22.2118L30.4468 22.2491C27.9729 23.0241 26.3109 25.2865 26.3109 27.8789V39.7937C26.3109 40.9961 27.2891 41.9743 28.4916 41.9743C29.694 41.9743 30.6723 40.9961 30.6723 39.7937V27.8789C30.6723 27.2031 31.1055 26.6132 31.7506 26.4113L31.8536 26.379C31.6236 27.1291 31.5038 27.9174 31.5038 28.7242C31.5038 30.8516 32.3322 32.8517 33.8364 34.3559C35.3893 35.9087 37.4283 36.685 39.4681 36.6848C41.5073 36.6847 43.5473 35.9084 45.0998 34.3559C49.3182 30.1378 49.948 24.4848 49.948 21.4907C49.948 19.2876 49.615 15.9827 48.0287 12.7492ZM22.228 27.8789V39.7937C22.228 40.1901 21.9054 40.5126 21.509 40.5126C21.1125 40.5126 20.7901 40.1901 20.7901 39.7937V27.8789C20.7901 26.5607 19.9449 25.4104 18.6869 25.0163L17.3458 24.5963C17.0632 24.1316 16.7301 23.6942 16.3509 23.2888L17.1219 23.0194L19.1166 23.6442C20.9777 24.227 22.228 25.9289 22.228 27.8789ZM26.6185 17.3292L25.7606 15.8249C25.6049 15.5521 25.313 15.3826 24.9989 15.3827C24.6848 15.3828 24.393 15.5523 24.2376 15.825L23.3796 17.3293C22.482 18.9031 21.0457 20.0992 19.3353 20.697L15.5476 22.021C15.5063 21.8507 15.483 21.6743 15.483 21.4906C15.483 21.1056 15.5744 20.7495 15.7545 20.4256L18.8609 19.3398C20.2437 18.8565 21.4049 17.8895 22.1307 16.617L23.4955 14.2239C24.0088 13.3238 24.2801 12.3005 24.2801 11.2644V2.82526C24.2801 2.62675 24.3592 2.44198 24.5029 2.30497C24.6464 2.16805 24.8358 2.09788 25.0347 2.10714C25.4114 2.12488 25.7179 2.46537 25.7179 2.86619V11.2642C25.7179 12.3003 25.9892 13.3237 26.5026 14.2238L27.8675 16.617C28.593 17.8894 29.7543 18.8565 31.1373 19.3398L34.2466 20.4266C34.4264 20.7502 34.5174 21.106 34.5174 21.4906C34.5174 21.6746 34.494 21.8512 34.4527 22.0218L30.6628 20.6971C28.9525 20.0993 27.5162 18.9032 26.6185 17.3292ZM31.3137 25.0163C30.0558 25.4104 29.2106 26.5607 29.2106 27.8789V39.7937C29.2106 40.1901 28.888 40.5126 28.4917 40.5126C28.0953 40.5126 27.7728 40.1901 27.7728 39.7937V27.8789C27.7728 25.9289 29.0231 24.227 30.884 23.6442L32.8776 23.0198L33.6491 23.2894C33.2702 23.6945 32.9373 24.1318 32.6548 24.5962L31.3137 25.0163Z" fill="#F3B21F"/>
</svg>
