<svg width="50" height="51" viewBox="0 0 50 51" fill="none" xmlns="http://www.w3.org/2000/svg">
<g clip-path="url(#clip0_3728_14795)">
<path d="M49.588 10.0113C48.6918 8.11067 44.4337 8.72053 38.0397 9.86792C37.2981 10.0008 36.5978 10.1266 35.9546 10.2344C34.4643 10.4842 32.9696 10.6241 31.4798 10.6566V3.64982C31.4798 1.85915 30.023 0.402344 28.2323 0.402344C26.4416 0.402344 24.9848 1.85915 24.9848 3.64982V10.1544C22.6909 9.8956 20.2262 9.85944 17.6372 10.0492C17.2342 10.0787 16.9315 10.4292 16.961 10.8322C16.9904 11.2352 17.3401 11.5376 17.7441 11.5084C20.6985 11.2922 23.4789 11.3783 26.0086 11.7649C26.2077 11.7953 26.4074 11.8238 26.6079 11.8504C26.7354 11.8673 26.8631 11.8822 26.9908 11.8977C27.0596 11.906 27.128 11.9151 27.1969 11.9229C27.3672 11.9424 27.5377 11.9597 27.7083 11.9765C27.7324 11.9788 27.7563 11.9816 27.7804 11.9838C30.565 12.2497 33.3881 12.1482 36.1961 11.6776C36.8475 11.5686 37.552 11.4422 38.2978 11.3083C40.4971 10.9137 42.9897 10.4664 44.9971 10.3106C47.9669 10.0809 48.2617 10.6299 48.2641 10.6354C49.523 13.3054 45.217 17.6937 40.6984 21.9597C40.4046 22.2371 40.3914 22.7002 40.6687 22.994C40.8127 23.1465 41.0065 23.2234 41.2008 23.2234C41.3811 23.2234 41.5616 23.1571 41.7029 23.0237C43.8951 20.9541 46.3687 18.5619 47.978 16.3628C49.8625 13.7879 50.389 11.7104 49.588 10.0113ZM30.0166 10.6532C29.4321 10.6381 28.8486 10.606 28.2684 10.5578C28.2467 10.5559 28.2252 10.5544 28.2035 10.5525C28.086 10.5425 27.9686 10.5315 27.8512 10.5201C27.7811 10.5132 27.7111 10.506 27.6412 10.4987C27.5468 10.4889 27.4525 10.4791 27.3585 10.4685C27.1937 10.4497 27.0291 10.4298 26.8646 10.4082C26.8196 10.4023 26.7747 10.3958 26.7297 10.3897C26.6358 10.3769 26.5419 10.3632 26.4481 10.3495V3.64973C26.4482 2.66595 27.2485 1.86558 28.2323 1.86558C29.2161 1.86558 30.0165 2.66595 30.0165 3.64973V10.6532H30.0166Z" fill="#02BB9A"/>
<path d="M39.8312 23.777C39.5539 23.4828 39.091 23.4692 38.7969 23.7464C37.2477 25.2067 35.4839 26.8926 34.1571 28.4196C33.3168 29.3867 32.3332 30.3347 31.2613 31.246C31.5497 30.7389 31.8406 30.1921 32.1209 29.6129C34.147 25.425 34.6076 21.5573 33.4531 18.4279C33.3133 18.0488 32.8922 17.8546 32.5134 17.9948C32.1343 18.1346 31.9404 18.5553 32.0804 18.9344C34.4146 25.2616 28.4149 33.0415 27.6816 33.9576C26.4266 34.8135 25.1384 35.6088 23.8806 36.3223C23.7219 36.412 23.5632 36.5014 23.404 36.5893C23.3922 36.5959 23.3804 36.6024 23.3687 36.6089C22.1193 37.2979 20.8599 37.9305 19.6676 38.466C19.6459 38.4758 19.6258 38.488 19.6054 38.4996C18.8879 38.8209 18.217 39.0965 17.61 39.3207C17.5849 39.3269 17.56 39.3344 17.5355 39.3435C16.8707 39.5881 16.3002 39.7657 15.8375 39.8728C15.8279 39.875 15.8177 39.8776 15.8082 39.8798C15.8065 39.8802 15.8048 39.8807 15.8031 39.881C15.7309 39.8975 15.6582 39.9157 15.5849 39.9351C15.5555 39.9428 15.5261 39.9507 15.4967 39.9588C15.4591 39.9692 15.4208 39.9804 15.3826 39.9918C15.2967 40.0169 15.2111 40.0437 15.1258 40.072C15.1192 40.0742 15.1129 40.076 15.1062 40.0783C15.1055 40.0786 15.1048 40.0789 15.104 40.0792C12.558 40.9329 10.333 43.1472 8.35078 45.1211C6.24593 47.2171 4.2582 49.1969 2.7211 48.6537C1.14969 48.0983 1.45052 44.5348 1.769 40.7622C1.9522 38.5919 2.14175 36.3475 2.05102 34.1867C1.99713 32.9026 1.98641 31.6543 2.01925 30.4764C2.03046 30.0724 1.71228 29.7358 1.30834 29.7246C0.903234 29.7127 0.567806 30.0316 0.556599 30.4355C0.522978 31.6473 0.53399 32.9299 0.589245 34.2478C0.676172 36.3163 0.490526 38.5137 0.311118 40.6388C-0.0722572 45.1796 -0.403301 49.101 2.23355 50.0332C2.58291 50.1566 2.92974 50.2139 3.2756 50.2138C5.31039 50.2136 7.29772 48.235 9.38348 46.1579C10.9958 44.5522 12.7798 42.7768 14.6691 41.8417C14.6554 43.0136 14.3365 44.4249 13.227 45.6979C12.876 46.1006 12.7029 46.6158 12.7394 47.1488C12.776 47.6818 13.0178 48.1685 13.4205 48.5194C13.7938 48.8447 14.2607 49.0131 14.7334 49.0131C15.0375 49.0131 15.3439 48.9433 15.6291 48.8009C15.8628 48.6841 16.0691 48.5242 16.242 48.3258C18.5708 45.6537 18.8473 42.6948 18.5937 40.5058C18.8017 40.4244 19.0161 40.3377 19.2358 40.2466V46.8906C19.2358 48.6813 20.6926 50.138 22.4832 50.138C24.2739 50.138 25.7307 48.6812 25.7307 46.8906V39.0321C26.645 40.3231 27.9985 41.5921 29.999 42.4156C30.2423 42.5156 30.4982 42.5664 30.7595 42.5664C31.5732 42.5664 32.2992 42.0801 32.6092 41.3274C33.0289 40.3078 32.5407 39.1367 31.5211 38.717C29.6908 37.9636 28.7413 36.558 28.2498 35.3523C30.8595 33.5968 33.3668 31.5605 35.2621 29.3791C36.5446 27.9028 38.2773 26.2471 39.8009 24.8108C40.0947 24.5341 40.1083 24.071 39.8312 23.777ZM15.139 47.3646C15.0922 47.4183 15.0369 47.4611 14.9749 47.4922C14.7793 47.5898 14.5467 47.5601 14.3818 47.4166C14.2738 47.3225 14.2089 47.1919 14.1991 47.0489C14.1892 46.9059 14.2357 46.7676 14.3298 46.6596C15.9025 44.8552 16.2046 42.848 16.121 41.3096C16.1248 41.3087 16.1287 41.3075 16.1325 41.3067C16.2009 41.2912 16.272 41.2738 16.3446 41.2554C16.3712 41.2488 16.3984 41.2416 16.4253 41.2346C16.4703 41.2229 16.516 41.2107 16.5625 41.1979C16.5988 41.188 16.6353 41.1779 16.6725 41.1674C16.7054 41.1581 16.7393 41.1481 16.7729 41.1383C16.9024 41.1008 17.0349 41.0608 17.1738 41.0164C17.3227 42.8559 17.003 45.2257 15.139 47.3646ZM24.2673 46.8907C24.2673 47.8745 23.4669 48.6749 22.4831 48.6749C21.4994 48.6749 20.699 47.8745 20.699 46.8907V39.6048C21.8141 39.0908 23.0224 38.4803 24.2674 37.7882V46.8907H24.2673ZM30.9639 40.0703C31.2375 40.1829 31.3684 40.497 31.2559 40.7706C31.1726 40.9727 30.9776 41.1033 30.7592 41.1033C30.6897 41.1033 30.6211 41.0895 30.5553 41.0626C28.5174 40.2237 27.0163 38.7687 26.0858 36.7331C26.3918 36.5478 26.6982 36.358 27.0045 36.1643C27.6372 37.5871 28.8064 39.1822 30.9639 40.0703Z" fill="#02BB9A"/>
<path d="M15.3261 11.0065C15.2707 10.6062 14.9018 10.3268 14.5011 10.3819C10.1912 10.9779 6.82382 12.9098 4.49248 16.1243C2.37242 19.0476 1.09113 23.0742 0.684072 28.0925C0.651425 28.4953 0.951382 28.8483 1.35415 28.8809C1.37432 28.8826 1.3942 28.8832 1.41418 28.8832C1.79142 28.8832 2.11154 28.5933 2.14263 28.2107C2.52766 23.4638 3.71687 19.6862 5.6772 16.9834C7.7655 14.1039 10.8017 12.3706 14.7016 11.8314C15.1018 11.7762 15.3813 11.4067 15.3261 11.0065Z" fill="#02BB9A"/>
</g>
<defs>
<clipPath id="clip0_3728_14795">
<rect width="49.8953" height="49.8953" fill="white" transform="translate(0.0527344 0.363281)"/>
</clipPath>
</defs>
</svg>
