<svg width="50" height="51" viewBox="0 0 50 51" fill="none" xmlns="http://www.w3.org/2000/svg">
<g clip-path="url(#clip0_3728_14813)">
<path d="M45.9488 30.7608C46.4868 30.7608 46.9229 30.3247 46.9229 29.7867C46.9229 29.2486 46.4868 28.8125 45.9488 28.8125C45.4108 28.8125 44.9746 29.2486 44.9746 29.7867C44.9746 30.3247 45.4108 30.7608 45.9488 30.7608Z" fill="#487FFD"/>
<path d="M47.0831 33.0027C46.5683 33.159 46.2777 33.703 46.434 34.218C48.271 40.2666 48.5029 45.1171 47.0542 47.193C46.569 47.8884 45.8916 48.2518 44.9843 48.3039C43.412 48.3971 38.509 45.5397 34.478 42.6746C34.3131 42.5575 34.1159 42.4945 33.9136 42.4945C31.4712 42.4945 29.4842 40.5086 29.4842 38.0679C29.4842 38.0679 29.4976 25.5734 29.5061 25.3862L33.3808 29.2609V37.5799C33.3808 38.1178 33.8169 38.554 34.3549 38.554C34.893 38.554 35.3291 38.1178 35.3291 37.5799V31.2092L39.5119 35.392C39.8924 35.7724 40.5092 35.7724 40.8897 35.392C41.2701 35.0116 41.2701 34.3948 40.8897 34.0143L36.662 29.7866H40.2008C40.7389 29.7866 41.175 29.3504 41.175 28.8125C41.175 28.2745 40.7389 27.8383 40.2008 27.8383H34.7137L29.7124 22.837C30.0243 20.2415 31.0023 15.3526 33.6137 15.2225C33.6273 15.2222 33.6408 15.2222 33.6545 15.2222C34.9073 15.2222 36.529 16.2855 38.2287 18.2235C39.948 20.184 41.6963 22.9457 43.2841 26.21C43.5196 26.6939 44.1025 26.8954 44.5863 26.6599C45.0701 26.4246 45.2715 25.8416 45.0362 25.3578C43.3734 21.9393 41.5259 19.0281 39.6935 16.9388C37.5222 14.4631 35.4574 13.2307 33.5577 13.275C33.5507 13.2752 33.5438 13.2754 33.5367 13.2757C32.7137 13.3127 31.958 13.5875 31.2794 14.0925L29.1385 11.9508C28.3398 11.152 27.9255 10.0939 27.9255 9.02936V1.34134C27.9255 0.803413 27.4923 0.367188 26.9543 0.367188H23.0577C22.5196 0.367188 22.0835 0.803413 22.0835 1.34134V9.11703C22.0835 10.1748 21.6466 11.2033 20.8848 11.9388C20.8806 11.9428 20.8764 11.9469 20.8724 11.951L18.7289 14.0959C18.0493 13.5893 17.2891 13.3132 16.458 13.2756C16.451 13.2753 16.4439 13.2751 16.4368 13.2749C12.0104 13.1729 7.74096 19.9985 5.68822 23.9123C2.4777 30.0334 0.272025 37.2311 0.0690109 42.2494C-0.202193 48.9527 2.97891 50.1387 4.89994 50.2492C4.95098 50.252 5.00329 50.2535 5.05707 50.2535C7.84695 50.2535 14.1041 46.048 16.4013 44.435C19.8733 44.2645 22.4794 41.3583 22.4704 38.0504V25.324C22.4704 25.0483 22.3102 22.0693 21.6512 19.4417L25.0059 16.0831L28.3489 19.427C27.8901 21.2626 27.6099 23.487 27.5364 25.9071C27.5362 25.917 27.5361 38.0677 27.5361 38.0677C27.5361 41.4753 30.2249 44.2671 33.5932 44.4346C35.8829 46.0432 42.147 50.2535 44.9382 50.2532C46.3153 50.2532 47.7407 49.6138 48.6521 48.3076C51.1361 44.748 49.4967 37.5971 48.2984 33.6514C48.142 33.137 47.5982 32.8463 47.0831 33.0027V33.0027ZM20.522 38.0531C20.5285 40.42 18.6004 42.4946 16.0809 42.4946C15.8787 42.4946 15.6816 42.5575 15.5167 42.6746C11.4839 45.5395 6.58357 48.3955 5.01089 48.3041C2.86795 48.1809 1.86019 46.1703 2.01556 42.3282C2.20786 37.5761 4.32665 30.7026 7.41354 24.8174C10.5236 18.8877 13.9351 15.2222 16.3364 15.2222C16.351 15.2222 16.366 15.2223 16.3805 15.2226C18.9819 15.3523 19.9694 20.2499 20.2956 22.8392L15.2762 27.8384H9.81026C9.27223 27.8384 8.8361 28.2746 8.8361 28.8126C8.8361 29.3505 9.27223 29.7867 9.81026 29.7867H13.3201L9.1228 33.9673C8.74161 34.3469 8.74034 34.9638 9.11997 35.345C9.4997 35.7261 10.1164 35.7274 10.4976 35.3477L14.677 31.1849V37.58C14.677 38.1179 15.1132 38.5541 15.6512 38.5541C16.1892 38.5541 16.6253 38.1179 16.6253 37.58V29.2444L20.521 25.3643C20.5215 25.3679 20.522 38.0531 20.522 38.0531V38.0531ZM23.6274 14.7079L20.9877 17.3496C20.7106 16.6548 20.398 16.047 20.052 15.5282L22.2446 13.3341C23.3807 12.234 24.0291 10.6975 24.0291 9.11703V2.31549H25.9803V9.02936C25.9803 10.5957 26.5854 12.1525 27.7609 13.3284L29.9534 15.5217C29.605 16.0403 29.2909 16.6459 29.0136 17.3362L26.3811 14.703C25.6202 13.9479 24.385 13.9499 23.6274 14.7079V14.7079Z" fill="#487FFD"/>
</g>
<defs>
<clipPath id="clip0_3728_14813">
<rect width="49.8953" height="49.8953" fill="white" transform="translate(0.0527344 0.363281)"/>
</clipPath>
</defs>
</svg>
