<svg width="50" height="51" viewBox="0 0 50 51" fill="none" xmlns="http://www.w3.org/2000/svg">
<g clip-path="url(#clip0_3728_14818)">
<path d="M16.4238 22.3844C16.4238 23.4758 16.8487 24.5026 17.6213 25.2744L18.9911 26.6442L20.0935 25.5418L18.7237 24.172C18.2458 23.6941 17.9831 23.0595 17.9831 22.3844C17.9831 20.9904 19.1174 19.8561 20.5113 19.8561H21.1015V18.2969H20.5113C18.2575 18.2969 16.4238 20.1305 16.4238 22.3844V22.3844Z" fill="#FF72B4"/>
<path d="M34.5382 15.1764H35.1338V13.6172H34.5382C33.166 13.6172 31.9319 14.3796 31.3184 15.6075L32.7131 16.3053C33.0608 15.6091 33.7601 15.1764 34.5382 15.1764Z" fill="#FF72B4"/>
<path d="M27.567 23.0683C28.4254 22.2107 28.8978 21.0693 28.8978 19.8555H27.3386C27.3386 20.6522 27.0283 21.4022 26.4647 21.9659L26.0078 22.4227L27.1102 23.5251L27.567 23.0683Z" fill="#FF72B4"/>
<path d="M23.212 30.998C22.8619 30.6479 22.6608 30.1622 22.6608 29.6672C22.6608 29.0786 22.89 28.5243 23.3063 28.108L23.9916 27.4227L22.8892 26.3203L22.2039 27.0056C21.4929 27.7158 21.1016 28.6615 21.1016 29.6672C21.1016 30.5864 21.4594 31.4509 22.1096 32.1004L23.212 30.998Z" fill="#FF72B4"/>
<path d="M26.9082 13.7422L29.2469 12.1821L30.1122 13.4792L27.7735 15.0393L26.9082 13.7422Z" fill="#FF72B4"/>
<path d="M36.8541 24.5329C35.0844 24.5329 33.37 24.9048 31.7585 25.6369L27.2952 27.6654C27.257 27.3185 27.1884 26.9817 27.1019 26.6519L27.4332 26.3206C28.1271 25.6267 29.0049 25.1753 29.9724 25.014L30.8588 24.8658C32.4329 24.6047 33.5758 23.2552 33.5758 21.6585C33.5758 21.2063 33.752 20.7814 34.0716 20.4618L34.127 20.4064L34.4809 20.4945C34.8512 20.5873 35.2325 20.6349 35.6145 20.6349C37.5386 20.6349 39.2428 19.481 39.9569 17.6949L40.0957 17.348C40.2431 16.9808 40.4824 16.6565 40.7857 16.4078C41.2838 16.6191 41.8311 16.7368 42.4057 16.7368C43.9883 16.7368 45.4119 15.8574 46.1198 14.4416L46.5571 13.5669C48.0345 13.3229 49.1681 12.0459 49.1681 10.4999C49.1681 8.78007 47.7694 7.38144 46.0496 7.38144C45.4587 7.38144 44.8724 7.4633 44.3064 7.62546L40.5268 8.70522C40.0715 8.83464 39.5929 8.8245 39.1446 8.67482L38.2363 8.37233C37.0357 7.97239 35.6886 8.15404 34.6376 8.85413L33.8027 9.41077C33.4791 9.62595 33.1041 9.75926 32.7167 9.79356L29.9966 10.0407C30.2874 9.21431 30.4573 8.31074 30.4573 7.38144C30.4573 3.94256 28.3594 1.14453 25.7797 1.14453H21.102C9.92544 1.14453 0.832031 10.2379 0.832031 21.4145C0.832031 32.591 9.92544 41.6844 21.102 41.6844C25.2986 41.6844 29.3199 40.2749 32.5623 37.7716C33.2094 38.5644 33.5758 39.5615 33.5758 40.5969V49.4806H49.1681V36.8469C49.1681 30.0573 43.6437 24.5329 36.8541 24.5329ZM32.857 11.3481C33.5017 11.2896 34.1278 11.069 34.6673 10.7096L35.5022 10.153C36.1571 9.71716 36.996 9.60412 37.7436 9.85281L38.6511 10.1553C39.3987 10.404 40.1947 10.4219 40.9548 10.2052L44.7352 9.12544C45.1616 9.00304 45.6045 8.94067 46.0496 8.94067C46.9095 8.94067 47.6088 9.63998 47.6088 10.4999C47.6088 11.3598 46.9095 12.0591 46.0496 12.0591C45.1897 12.0591 44.4904 11.3598 44.4904 10.4999H42.9312C42.9312 11.8128 43.7498 12.9338 44.9005 13.393L44.7251 13.7439C44.283 14.6279 43.3943 15.1776 42.4057 15.1776C40.9759 15.1776 39.8127 14.0144 39.8127 12.5846V12.0591H38.2535V12.5846C38.2535 13.7291 38.7189 14.7675 39.4705 15.519C39.1228 15.88 38.8359 16.2994 38.648 16.7688L38.5084 17.1165C38.0336 18.3062 36.897 19.0756 35.6145 19.0756C35.3603 19.0756 35.1062 19.0445 34.8583 18.9821L33.897 18.742C33.0433 18.5284 32.3276 17.9546 31.9339 17.1671L30.5392 17.8649C30.9797 18.7451 31.6852 19.4467 32.5444 19.8864C32.2029 20.4096 32.0166 21.0192 32.0166 21.6585C32.0166 22.4896 31.4217 23.192 30.6024 23.3284L29.7159 23.4766C28.4943 23.68 27.3872 24.2414 26.4876 25.0841C25.2971 22.8996 22.9801 21.4145 20.3224 21.4145H19.5428V22.9737H20.3224C23.3317 22.9737 25.7797 25.4217 25.7797 28.431C25.7797 31.4403 23.3317 33.8883 20.3224 33.8883H19.2582C16.5319 33.8883 14.0504 32.8483 12.1668 31.155L12.672 30.3972C12.9153 30.0323 13.0821 29.6301 13.1858 29.2114H13.613C15.1114 29.2114 16.503 29.9559 17.3341 31.2033L18.6314 30.3387C17.5111 28.6555 15.6346 27.6514 13.6138 27.6514H13.2404C12.9293 25.8832 11.3903 24.5329 9.53486 24.5329H8.71314C8.66169 24.1143 8.62817 23.6902 8.62817 23.2583C8.62817 21.5649 9.02109 19.9652 9.71885 18.5439L11.7466 19.5574V19.9886C11.7466 21.6187 12.3812 23.1515 13.5343 24.3045L14.6366 23.2021C13.7783 22.3438 13.3058 21.2032 13.3058 19.9886V19.8553H14.8651V18.296H12.7102L10.5164 17.1991C12.2479 14.695 15.0296 12.9689 18.2962 12.6719L20.1158 12.5066C19.7915 13.2129 19.5872 13.9715 19.5498 14.7558L17.5516 16.0882L18.4162 17.3854L20.1501 16.2301C21.2868 17.5343 22.9341 18.296 24.6921 18.296H25.7797V16.7368H24.6921C23.2716 16.7368 21.9541 16.0624 21.1113 14.9304C21.1355 13.9894 21.4567 13.0859 22.0188 12.3335L32.857 11.3481ZM11.3747 29.5318L11.0551 30.0113C10.1203 28.8785 9.42649 27.5454 9.02343 26.0922H9.53408C10.7542 26.0922 11.7466 27.0846 11.7466 28.3047C11.7466 28.7429 11.618 29.167 11.3747 29.5318ZM28.8981 7.38144C28.8981 8.40741 28.658 9.38739 28.2393 10.2021L23.5741 10.6262C22.9996 9.75146 22.6612 8.60231 22.6612 7.38144C22.6612 4.84614 24.0895 2.70376 25.7797 2.70376C27.4699 2.70376 28.8981 4.84614 28.8981 7.38144ZM47.6088 47.9213H35.135V40.5969C35.135 39.1905 34.6345 37.837 33.7504 36.7635C34.753 35.8475 35.6667 34.8223 36.4612 33.6879L36.5539 33.5562L35.2761 32.662L35.1834 32.7945C31.9698 37.3841 26.7058 40.1252 21.102 40.1252C10.7854 40.1252 2.39126 31.7311 2.39126 21.4145C2.39126 11.0979 10.7854 2.70376 21.102 2.70376H22.6963C21.721 3.84745 21.102 5.51816 21.102 7.38144C21.102 8.59764 21.3733 9.77875 21.859 10.7821L18.155 11.1189C11.8347 11.6935 7.06894 16.9122 7.06894 23.2583C7.06894 29.9793 12.5371 35.4475 19.2582 35.4475H20.3224C23.8642 35.4475 26.7947 32.8062 27.2656 29.3915L32.404 27.0558C33.8105 26.4165 35.3081 26.0922 36.8541 26.0922C42.7846 26.0922 47.6088 30.9164 47.6088 36.8469V47.9213Z" fill="#FF72B4"/>
<path d="M44.4908 36.8482V41.6857H46.0501V36.8482C46.0501 35.0933 45.5519 33.386 44.6094 31.9102L43.2949 32.7498C44.0777 33.9746 44.4908 35.3919 44.4908 36.8482V36.8482Z" fill="#FF72B4"/>
<path d="M44.4902 43.2422H46.0495V46.3606H44.4902V43.2422Z" fill="#FF72B4"/>
</g>
<defs>
<clipPath id="clip0_3728_14818">
<rect width="49.8953" height="49.8953" fill="white" transform="translate(0.0527344 0.363281)"/>
</clipPath>
</defs>
</svg>
