<svg width="44" height="44" viewBox="0 0 44 44" fill="none" xmlns="http://www.w3.org/2000/svg">
<path d="M38.61 10.4353C37.2654 8.66869 35.3659 7.40529 33.2168 6.8481C31.0677 6.29091 28.7937 6.47228 26.7601 7.36308C24.9399 8.14854 23.3166 9.47284 22 11.2303C20.6834 9.46854 19.0601 8.14425 17.2399 7.36308C15.2063 6.47228 12.9323 6.29091 10.7832 6.8481C8.63408 7.40529 6.73464 8.66869 5.39 10.4353C3.97203 12.2933 3.22266 14.6153 3.22266 17.1496C3.22266 20.7968 5.39773 24.7981 9.68688 29.0468C13.182 32.5075 17.3121 35.3417 19.4623 36.7228C20.2199 37.2076 21.1005 37.4653 22 37.4653C22.8995 37.4653 23.7801 37.2076 24.5377 36.7228C26.6862 35.3417 30.818 32.5075 34.3131 29.0468C38.6023 24.7998 40.7773 20.7968 40.7773 17.1496C40.7773 14.6153 40.028 12.2933 38.61 10.4353Z" fill="#F9595F"/>
</svg>
