<svg width="348" height="163" viewBox="0 0 348 163" fill="none" xmlns="http://www.w3.org/2000/svg">
                            <path d="M3.33398 58.666C3.50977 58.334 3.80273 57.7188 4.21289 56.8203C4.60352 55.9414 5.0332 54.9746 5.50195 53.9199C11.6934 40.1895 17.7285 28.666 23.6074 19.3496C24.4082 18.0996 24.9941 17.2598 25.3652 16.8301C25.7363 16.3809 26.0586 16.1562 26.332 16.1562C26.957 16.1562 27.1816 16.8398 27.0059 18.207C26.9668 18.4609 26.8887 18.9785 26.7715 19.7598C26.6543 20.5215 26.4492 21.7617 26.1562 23.4805C25.8633 25.1797 25.4629 27.5527 24.9551 30.5996C24.4473 33.666 23.6562 37.7578 22.582 42.875C21.3516 48.5977 20.7363 52.4648 20.7363 54.4766C20.7363 54.75 20.7461 54.9941 20.7656 55.209C20.7852 55.4238 20.8047 55.5508 20.8242 55.5898C20.8828 55.6289 20.9902 55.5508 21.1465 55.3555C21.3223 55.1602 21.5859 54.7793 21.9375 54.2129C22.2891 53.6465 22.7676 52.8164 23.373 51.7227C23.998 50.6289 24.7891 49.2227 25.7461 47.5039C30.7852 38.3828 34.7402 31.6934 37.6113 27.4355C42.5137 20.3066 47.2012 14.4766 51.6738 9.94531C52.709 8.89062 53.4805 8.22656 53.9883 7.95312C54.4961 7.67969 54.9062 7.70898 55.2188 8.04102C55.6875 8.37305 55.7363 9.42773 55.3652 11.2051C55.1699 12.123 54.9062 13.0898 54.5742 14.1055C54.2617 15.1211 53.7344 16.5859 52.9922 18.5C48.8711 29.3203 45.9414 38.334 44.2031 45.541C42.8359 51.2832 41.8984 56.8203 41.3906 62.1523C41.3711 62.1914 41.3613 62.2207 41.3613 62.2402C41.3027 62.8457 41.2637 63.3145 41.2441 63.6465C41.2246 63.998 41.2148 64.252 41.2148 64.4082C41.2344 64.584 41.2637 64.7012 41.3027 64.7598C41.3613 64.8184 41.4297 64.8672 41.5078 64.9062C41.5273 64.9062 41.5371 64.916 41.5371 64.9355C41.8887 65.1113 42.1035 65.3945 42.1816 65.7852C42.2598 66.1758 42.2012 66.6055 42.0059 67.0742C41.7324 67.6016 41.3906 67.9434 40.9805 68.0996C40.5898 68.2754 40.248 68.207 39.9551 67.8945C39.623 67.543 39.5352 66.752 39.6914 65.5215C39.75 65.248 39.8086 64.7891 39.8672 64.1445C39.9453 63.5 40.0332 62.8262 40.1309 62.123C41.0879 54.1738 42.6895 46.2637 44.9355 38.3926C45.6777 35.8535 46.6738 32.7188 47.9238 28.9883C49.1934 25.2383 50.4727 21.6055 51.7617 18.0898C52.0352 17.3477 52.3086 16.5957 52.582 15.834C52.8555 15.0527 53.0703 14.4375 53.2266 13.9883C53.3828 13.4414 53.5391 12.8359 53.6953 12.1719C53.8711 11.5078 54.0078 10.9219 54.1055 10.4141C54.2031 9.90625 54.2324 9.62305 54.1934 9.56445C54.1934 9.54492 54.1836 9.53516 54.1641 9.53516C54.1445 9.53516 54.125 9.54492 54.1055 9.56445C54.0859 9.58398 54.0469 9.61328 53.9883 9.65234C53.9492 9.69141 53.8809 9.75 53.7832 9.82812C53.7051 9.88672 53.5977 9.97461 53.4609 10.0918C53.3438 10.209 53.1973 10.3555 53.0215 10.5312C52.8457 10.6875 52.6406 10.8828 52.4062 11.1172C51.3125 12.1719 49.8672 13.7344 48.0703 15.8047C46.293 17.8555 44.5938 19.9258 42.9727 22.0156C38.207 28.1875 32.6211 37.2109 26.2148 49.0859C24.9453 51.4297 23.9395 53.207 23.1973 54.418C22.4551 55.6289 21.8594 56.4102 21.4102 56.7617C20.9805 57.1133 20.5898 57.1719 20.2383 56.9375C20.0039 56.8203 19.8379 56.5762 19.7402 56.2051C19.6621 55.8535 19.6328 55.2285 19.6523 54.3301C19.6328 53.2363 19.7695 51.7617 20.0625 49.9062C20.375 48.0312 20.9414 45.1211 21.7617 41.1758C22.3281 38.3828 22.7676 36.1367 23.0801 34.4375C23.4121 32.7383 23.7734 30.7656 24.1641 28.5195C24.3594 27.3477 24.5645 26.166 24.7793 24.9746C24.9746 23.8027 25.1309 22.8945 25.248 22.25C25.7559 19.3789 25.9609 17.9434 25.8633 17.9434C25.8242 17.9434 25.5508 18.3438 25.043 19.1445C24.5352 19.9258 23.959 20.834 23.3145 21.8691C22.6895 22.8848 22.1426 23.7832 21.6738 24.5645C18.7637 29.5059 15.5508 35.6094 12.0352 42.875C10.668 45.6875 9.58398 47.9727 8.7832 49.7305C7.98242 51.4688 7.12305 53.4414 6.20508 55.6484C5.4043 57.543 4.7793 58.9785 4.33008 59.9551C3.86133 60.9316 3.49023 61.5762 3.2168 61.8887C2.92383 62.2207 2.64062 62.3867 2.36719 62.3867C2.05469 62.3867 1.80078 62.2695 1.60547 62.0352C1.41016 61.8594 1.26367 61.5859 1.16602 61.2148C1.06836 60.8633 0.980469 60.2871 0.902344 59.4863C0.804688 57.3965 0.84375 55.8535 1.01953 54.8574C1.19531 53.8613 1.41016 53.041 1.66406 52.3965C1.70312 52.2793 1.74219 52.1621 1.78125 52.0449C2.26953 51.0098 2.88477 50.5117 3.62695 50.5508C4.34961 50.5703 4.7793 51.0879 4.91602 52.1035C4.93555 52.416 4.92578 52.6895 4.88672 52.9238C4.82812 53.1582 4.7207 53.4902 4.56445 53.9199C4.07617 55.209 3.54883 56.3223 2.98242 57.2598C2.63086 57.8262 2.55273 58.5293 2.74805 59.3691C2.76758 59.4863 2.79688 59.5449 2.83594 59.5449C2.85547 59.5645 2.9043 59.5059 2.98242 59.3691C3.06055 59.2324 3.17773 58.998 3.33398 58.666ZM55.3066 46.8594C54.9355 46.8594 54.6523 46.8105 54.457 46.7129C53.6367 46.2832 53.2266 45.4531 53.2266 44.2227C53.2266 43.3242 53.4219 42.1621 53.8125 40.7363V40.707C53.8125 40.6875 53.8027 40.6777 53.7832 40.6777C53.7441 40.6777 53.3633 41 52.6406 41.6445C50.9805 43.1289 49.7109 43.8711 48.832 43.8711C48.3242 43.8711 47.9531 43.6074 47.7188 43.0801C47.6211 42.8066 47.5723 42.5137 47.5723 42.2012C47.5723 41.3613 47.9727 40.4043 48.7734 39.3301C50.2578 37.6309 51.8008 36.7812 53.4023 36.7812C54.418 36.7812 55.1797 37.1621 55.6875 37.9238C55.7656 38.041 55.8047 38.2168 55.8047 38.4512C55.8047 39.1152 55.6875 39.5938 55.4531 39.8867C55.2188 40.1797 55.0039 40.6387 54.8086 41.2637C54.418 42.5332 54.2227 43.5586 54.2227 44.3398C54.2227 44.8672 54.3594 45.2871 54.6328 45.5996C54.8281 45.834 55.0625 45.9512 55.3359 45.9512C56.2539 45.9512 57.9043 45.0137 60.2871 43.1387C61.166 42.4355 61.7812 41.8594 62.1328 41.4102C62.4844 40.9414 62.6602 40.4824 62.6602 40.0332C62.6602 39.5645 62.7773 39.2422 63.0117 39.0664C63.2461 38.8906 63.4707 38.8027 63.6855 38.8027C64.0566 38.8027 64.3203 38.9883 64.4766 39.3594C64.5547 39.5938 64.5938 39.8184 64.5938 40.0332C64.5938 40.6777 64.3984 41.1172 64.0078 41.3516C63.832 41.4297 63.3633 41.8008 62.6016 42.4648C61.3906 43.5195 60.209 44.4473 59.0566 45.248C57.9043 46.0293 57.0254 46.5078 56.4199 46.6836C56.0684 46.8008 55.6973 46.8594 55.3066 46.8594ZM48.8613 42.7578C49.291 42.7578 50.082 42.25 51.2344 41.2344C52.2305 40.3555 52.8164 39.7207 52.9922 39.3301C53.0508 39.1934 53.0801 38.998 53.0801 38.7441C53.0801 38.3926 52.9043 38.2168 52.5527 38.2168C52.2207 38.2168 51.7812 38.3926 51.2344 38.7441C50.1211 39.4668 49.3496 40.3262 48.9199 41.3223C48.7051 41.8105 48.5977 42.1816 48.5977 42.4355C48.5977 42.6504 48.6855 42.7578 48.8613 42.7578ZM58.1191 61.625C57.9238 61.625 57.7188 61.5566 57.5039 61.4199C57.2695 61.2832 57.1133 61.127 57.0352 60.9512C56.957 60.7754 56.918 60.502 56.918 60.1309C56.918 59.7598 57.0352 58.9688 57.2695 57.7578C57.5039 56.5664 57.748 55.5215 58.002 54.623L58.2363 53.8613C58.998 50.9316 59.9355 47.8848 61.0488 44.7207C61.3809 43.8223 61.5469 43.2852 61.5469 43.1094C61.7422 42.2305 62.3867 40.541 63.4805 38.041L64.8574 34.6719C65.3262 33.5195 65.5605 32.8848 65.5605 32.7676C65.5605 32.7285 65.5215 32.709 65.4434 32.709C65.3262 32.709 65.0527 32.7578 64.623 32.8555C63.5684 33.0703 62.3672 33.3633 61.0195 33.7344C59.6719 34.1055 58.8223 34.4277 58.4707 34.7012C58.2754 34.8379 58.1777 35.0137 58.1777 35.2285C58.1777 35.4434 58.0801 35.6582 57.8848 35.873C57.5723 36.2246 57.2012 36.4004 56.7715 36.4004C56.498 36.4004 56.2246 36.293 55.9512 36.0781C55.6777 35.8633 55.541 35.5215 55.541 35.0527C55.541 34.1543 56.2832 33.4707 57.7676 33.002C59.1152 32.5332 61.293 31.9961 64.3008 31.3906C65.6094 31.1172 66.3223 30.9512 66.4395 30.8926C66.8301 30.1113 67.1426 29.457 67.377 28.9297C68.2363 27.1133 68.8516 26.0488 69.2227 25.7363C69.4375 25.5605 69.6816 25.4727 69.9551 25.4727C70.6777 25.4727 71.0391 25.9121 71.0391 26.791L70.9805 27.4062C70.7852 28.6367 70.2285 29.291 69.3105 29.3691C69.0957 29.3887 68.9297 29.4375 68.8125 29.5156C68.7148 29.5938 68.6074 29.75 68.4902 29.9844C68.4121 30.1406 68.3535 30.2676 68.3145 30.3652C68.2754 30.4434 68.2559 30.502 68.2559 30.541C68.2559 30.5605 68.2852 30.5703 68.3438 30.5703C68.6367 30.5703 69.3301 30.4824 70.4238 30.3066L72.6504 29.9844C73.4121 29.8867 75.2285 29.7598 78.0996 29.6035C79.0566 29.5449 79.7988 29.5156 80.3262 29.5156C80.4824 29.5156 80.6191 29.5254 80.7363 29.5449C80.873 29.5645 80.9902 29.6035 81.0879 29.6621C81.3027 29.7793 81.4785 29.9551 81.6152 30.1895C81.7715 30.4043 81.8496 30.6094 81.8496 30.8047C81.8496 31.2539 81.6934 31.6055 81.3809 31.8594C81.0879 32.1133 80.707 32.2402 80.2383 32.2402C79.9648 32.2402 79.7109 32.1914 79.4766 32.0938C78.168 31.8008 76.7227 31.6543 75.1406 31.6543C73.8125 31.6543 72.1133 31.7715 70.043 32.0059C68.3047 32.2207 67.377 32.3867 67.2598 32.5039C67.0645 32.7383 66.5762 33.7734 65.7949 35.6094L65.1211 37.2207C64.8477 37.8066 64.5938 38.4609 64.3594 39.1836C63.9297 40.3555 63.5781 41.2734 63.3047 41.9375C62.1523 45.0625 61.2051 48.0215 60.4629 50.8145C59.5645 54.1348 59.1152 56.6055 59.1152 58.2266C59.1152 58.6172 59.1836 58.9883 59.3203 59.3398C59.457 59.6914 59.5254 60.0039 59.5254 60.2773C59.5254 60.4922 59.4473 60.7168 59.291 60.9512C59.1152 61.2051 58.9199 61.3809 58.7051 61.4785C58.4707 61.5762 58.2754 61.625 58.1191 61.625ZM63.041 52.6602C62.6699 52.6602 62.4844 52.5332 62.4844 52.2793C62.4844 51.4785 63.5098 48.6562 65.5605 43.8125C67.377 39.4766 68.6953 36.4102 69.5156 34.6133C70.6289 32.0547 71.4004 30.1309 71.8301 28.8418C72.0449 28.2754 72.1523 27.8848 72.1523 27.6699C72.1523 27.5723 72.123 27.4648 72.0645 27.3477C72.0059 27.1133 71.9766 26.8887 71.9766 26.6738C71.9766 26.1855 72.1328 25.7852 72.4453 25.4727C72.7578 25.1406 73.1094 24.9746 73.5 24.9746C74.4375 24.9746 74.9062 25.4531 74.9062 26.4102C74.9062 26.8398 74.7793 27.2305 74.5254 27.582C74.291 27.9141 73.666 29.1738 72.6504 31.3613L71.2734 34.2031C69.2227 38.5195 67.7578 41.7422 66.8789 43.8711C66.6836 44.3398 66.5371 44.6914 66.4395 44.9258C66.3418 45.1602 66.293 45.2969 66.293 45.3359C66.293 45.3555 66.2832 45.4043 66.2637 45.4824C66.2832 45.4824 66.625 45.082 67.2891 44.2812C68.0508 43.4023 68.9492 42.4648 69.9844 41.4688C71.0195 40.4531 71.8398 39.7402 72.4453 39.3301C73.1484 38.8418 73.7637 38.5977 74.291 38.5977C74.9355 38.5977 75.4043 38.8613 75.6973 39.3887C75.9316 39.8574 76.1367 40.6484 76.3125 41.7617C76.5078 43.3242 76.7715 44.1055 77.1035 44.1055C77.3574 44.1055 77.8164 43.8418 78.4805 43.3145C80.5703 41.7129 81.7227 40.3848 81.9375 39.3301C82.1523 38.627 82.582 38.2754 83.2266 38.2754C83.8906 38.2754 84.3105 38.6367 84.4863 39.3594C84.5059 39.418 84.5156 39.4863 84.5156 39.5645C84.5156 40.0137 84.1152 40.5117 83.3145 41.0586C82.7676 41.4297 81.918 42.1035 80.7656 43.0801C79.6719 43.998 78.8711 44.6133 78.3633 44.9258C77.8555 45.2188 77.3965 45.3652 76.9863 45.3652C76.6934 45.3652 76.4883 45.3359 76.3711 45.2773C75.7461 45.0625 75.2578 43.9785 74.9062 42.0254C74.7109 40.7363 74.4863 40.0918 74.2324 40.0918C74.1738 40.0918 74.0664 40.1309 73.9102 40.209C72.5234 40.9707 70.7754 42.582 68.666 45.043C66.8691 47.1523 65.4238 49.1641 64.3301 51.0781C63.8418 51.918 63.5488 52.3965 63.4512 52.5137C63.3535 52.6113 63.2168 52.6602 63.041 52.6602ZM81.3516 49.3496H81.2051C80.8535 49.3496 80.5703 49.2324 80.3555 48.998C80.043 48.6465 79.8867 48.1289 79.8867 47.4453L79.916 46.4199C79.9941 45.4238 80.3262 44.2031 80.9121 42.7578C81.6738 40.8242 82.25 39.6816 82.6406 39.3301C82.8555 39.1543 83.1582 39.0664 83.5488 39.0664C84.1543 39.0664 84.4668 39.4375 84.4863 40.1797C84.4863 40.6875 84.0859 41.2148 83.2852 41.7617C83.0703 41.8984 82.8945 42.0449 82.7578 42.2012C82.3281 42.6895 81.957 43.5195 81.6445 44.6914C81.4102 45.6094 81.293 46.459 81.293 47.2402C81.293 47.748 81.3906 48.002 81.5859 48.002C81.9766 48.002 83.4609 46.7129 86.0391 44.1348C86.957 43.2363 87.6797 42.543 88.207 42.0547C88.7344 41.5664 89.1348 41.2344 89.4082 41.0586C89.6816 40.8828 89.9062 40.7949 90.082 40.7949C90.3945 40.7949 90.6191 40.9316 90.7559 41.2051C90.9121 41.459 91.0195 41.918 91.0781 42.582C91.1172 43.1484 91.1855 43.5684 91.2832 43.8418C91.3809 44.0957 91.625 44.2227 92.0156 44.2227C92.5625 44.2227 93.3047 43.9883 94.2422 43.5195C95.1992 43.0312 96.1172 42.3672 96.9961 41.5273C97.4258 41.0977 97.6406 40.7754 97.6406 40.5605C97.6406 40.1895 97.7773 39.8477 98.0508 39.5352C98.3242 39.2227 98.627 39.0664 98.959 39.0664C99.2324 39.0664 99.4863 39.1348 99.7207 39.2715C99.9746 39.4082 100.102 39.6035 100.102 39.8574C100.102 40.4238 99.6914 41.0488 98.8711 41.7324C98.0703 42.416 97.1523 43.0508 96.1172 43.6367C95.082 44.2031 94.3203 44.584 93.832 44.7793C92.9727 45.1309 92.2305 45.3066 91.6055 45.3066C90.9805 45.3066 90.5215 45.043 90.2285 44.5156C89.9746 44.1055 89.8477 43.6172 89.8477 43.0508C89.8477 42.582 89.7695 42.3281 89.6133 42.2891C89.5352 42.2891 88.4414 43.3242 86.332 45.3945C85.2383 46.4688 84.3887 47.2891 83.7832 47.8555C82.7285 48.8125 81.918 49.3105 81.3516 49.3496ZM103.822 49.3496C103.021 49.3496 102.416 49.0762 102.006 48.5293C101.674 48.0801 101.508 47.2012 101.508 45.8926L101.537 44.5742C101.537 43.3438 101.4 42.4746 101.127 41.9668C100.873 41.459 100.219 41.0684 99.1641 40.7949C98.0312 40.4629 97.4648 39.8477 97.4648 38.9492C97.4648 38.6367 97.5234 38.2949 97.6406 37.9238C97.875 37.2012 98.2461 36.6445 98.7539 36.2539C99.125 35.9805 99.4961 35.8438 99.8672 35.8438C100.023 35.8438 100.17 35.8633 100.307 35.9023C101.088 36.1758 101.479 36.791 101.479 37.748C101.479 38.1777 101.42 38.5684 101.303 38.9199C101.166 39.5059 101.098 39.8867 101.098 40.0625C101.098 40.3164 101.234 40.5117 101.508 40.6484C101.996 41.0781 102.299 41.5566 102.416 42.084C102.475 42.3965 102.523 43.3145 102.562 44.8379C102.602 46.5762 102.689 47.5625 102.826 47.7969C102.982 48.1094 103.295 48.2656 103.764 48.2656C104.467 48.2656 105.375 47.8457 106.488 47.0059C108.148 45.7363 109.574 44.3594 110.766 42.875C111.957 41.3711 112.631 40.1211 112.787 39.125C112.826 38.832 112.924 38.5195 113.08 38.1875C113.334 37.6016 113.676 37.3086 114.105 37.3086C114.242 37.3086 114.389 37.3477 114.545 37.4258C114.936 37.6797 115.131 38.0508 115.131 38.5391C115.131 38.5977 115.121 38.7832 115.102 39.0957C115.082 39.3887 114.838 39.7305 114.369 40.1211C114.154 40.2578 113.832 40.6387 113.402 41.2637C111.879 43.5488 110.072 45.5215 107.982 47.1816C106.186 48.627 104.799 49.3496 103.822 49.3496ZM98.8125 39.1836C99.0078 39.1836 99.252 38.9297 99.5449 38.4219C99.7207 38.0312 99.8086 37.7285 99.8086 37.5137C99.8086 37.3574 99.7695 37.2793 99.6914 37.2793C99.5547 37.2793 99.3984 37.3965 99.2227 37.6309C99.0469 37.8652 98.9102 38.1094 98.8125 38.3633C98.7344 38.5977 98.6953 38.793 98.6953 38.9492C98.6953 39.1055 98.7344 39.1836 98.8125 39.1836ZM110.092 56.293C109.799 56.293 109.545 56.2051 109.33 56.0293C109.018 55.7754 108.861 55.4336 108.861 55.0039C108.861 54.7891 108.9 54.5449 108.979 54.2715C110.131 50.9512 113.52 47.2891 119.145 43.2852L119.496 42.2891C119.711 41.6445 119.818 40.9902 119.818 40.3262C119.818 39.8574 119.691 39.623 119.438 39.623C119.184 39.623 118.705 39.7891 118.002 40.1211C117.045 40.5898 116.049 41.2832 115.014 42.2012C113.979 43.1191 113.07 44.125 112.289 45.2188C111.684 46.0781 111.264 46.5078 111.029 46.5078L110.854 46.4785C110.6 46.4199 110.473 46.2539 110.473 45.9805C110.473 45.4922 111.898 42.1328 114.75 35.9023C115.297 34.6523 115.746 33.666 116.098 32.9434C116.684 31.6934 116.977 30.9609 116.977 30.7461C116.977 30.6094 116.957 30.5215 116.918 30.4824C116.898 30.4434 116.879 30.4043 116.859 30.3652C116.742 30.0137 116.684 29.8086 116.684 29.75C116.684 29.2422 117.016 28.5293 117.68 27.6113C118.129 26.9668 118.588 26.6445 119.057 26.6445C119.291 26.6445 119.525 26.7422 119.76 26.9375C119.994 27.1133 120.111 27.4258 120.111 27.875C120.111 28.207 120.043 28.6074 119.906 29.0762C119.75 29.6426 119.604 30.0527 119.467 30.3066C119.33 30.5605 119.145 30.7559 118.91 30.8926C118.695 31.0098 118.373 31.4883 117.943 32.3281L116.83 34.5254C114.467 39.3691 113.285 41.8789 113.285 42.0547L113.314 42.084C113.393 42.084 113.646 41.8691 114.076 41.4395C115.6 40.0332 117.074 39.0859 118.5 38.5977C118.832 38.5 119.135 38.4512 119.408 38.4512C119.936 38.4512 120.336 38.627 120.609 38.9785C120.883 39.3105 121.02 39.7695 121.02 40.3555C121.02 40.707 120.971 41.0977 120.873 41.5273L120.756 42.1719V42.2012L121.752 41.6445L123.451 40.6484C124.779 39.8867 125.551 39.418 125.766 39.2422C125.883 39.1641 126.029 38.9199 126.205 38.5098C126.459 38.041 126.791 37.8066 127.201 37.8066C127.396 37.8066 127.602 37.8848 127.816 38.041C128.031 38.1777 128.139 38.4219 128.139 38.7734C128.139 39.0859 128.012 39.4082 127.758 39.7402C127.504 40.0723 127.25 40.2383 126.996 40.2383C126.664 40.2383 125.453 40.8633 123.363 42.1133C121.586 43.1875 120.541 43.8613 120.229 44.1348C120.014 44.3301 119.73 44.8086 119.379 45.5703C118.305 47.7969 117.035 49.8574 115.57 51.752C114.105 53.6465 112.719 55.0039 111.41 55.8242C110.922 56.1367 110.482 56.293 110.092 56.293ZM110.326 55.0039C110.443 55.0039 110.678 54.8867 111.029 54.6523C111.674 54.2422 112.445 53.5488 113.344 52.5723C114.633 51.166 115.766 49.6621 116.742 48.0605C117.523 46.7715 117.914 46.0586 117.914 45.9219V45.8926C117.836 45.8926 117.543 46.1172 117.035 46.5664C116.527 46.9961 115.922 47.5527 115.219 48.2363C114.516 48.9004 113.852 49.5645 113.227 50.2285C112.621 50.873 112.172 51.3809 111.879 51.752C111.41 52.377 111.01 53.002 110.678 53.627C110.346 54.2324 110.18 54.6426 110.18 54.8574C110.18 54.9551 110.229 55.0039 110.326 55.0039ZM122.455 52.6602C122.084 52.6602 121.898 52.5332 121.898 52.2793C121.898 51.4785 122.924 48.6562 124.975 43.8125C126.791 39.4766 128.109 36.4102 128.93 34.6133C130.043 32.0547 130.814 30.1309 131.244 28.8418C131.459 28.2754 131.566 27.8848 131.566 27.6699C131.566 27.5723 131.537 27.4648 131.479 27.3477C131.42 27.1133 131.391 26.8887 131.391 26.6738C131.391 26.1855 131.547 25.7852 131.859 25.4727C132.172 25.1406 132.523 24.9746 132.914 24.9746C133.852 24.9746 134.32 25.4531 134.32 26.4102C134.32 26.8398 134.193 27.2305 133.939 27.582C133.705 27.9141 133.08 29.1738 132.064 31.3613L130.688 34.2031C128.637 38.5195 127.172 41.7422 126.293 43.8711C126.098 44.3398 125.951 44.6914 125.854 44.9258C125.756 45.1602 125.707 45.2969 125.707 45.3359C125.707 45.3555 125.697 45.4043 125.678 45.4824C125.697 45.4824 126.039 45.082 126.703 44.2812C127.465 43.4023 128.363 42.4648 129.398 41.4688C130.434 40.4531 131.254 39.7402 131.859 39.3301C132.562 38.8418 133.178 38.5977 133.705 38.5977C134.35 38.5977 134.818 38.8613 135.111 39.3887C135.346 39.8574 135.551 40.6484 135.727 41.7617C135.922 43.3242 136.186 44.1055 136.518 44.1055C136.771 44.1055 137.23 43.8418 137.895 43.3145C139.984 41.7129 141.137 40.3848 141.352 39.3301C141.566 38.627 141.996 38.2754 142.641 38.2754C143.305 38.2754 143.725 38.6367 143.9 39.3594C143.92 39.418 143.93 39.4863 143.93 39.5645C143.93 40.0137 143.529 40.5117 142.729 41.0586C142.182 41.4297 141.332 42.1035 140.18 43.0801C139.086 43.998 138.285 44.6133 137.777 44.9258C137.27 45.2188 136.811 45.3652 136.4 45.3652C136.107 45.3652 135.902 45.3359 135.785 45.2773C135.16 45.0625 134.672 43.9785 134.32 42.0254C134.125 40.7363 133.9 40.0918 133.646 40.0918C133.588 40.0918 133.48 40.1309 133.324 40.209C131.938 40.9707 130.189 42.582 128.08 45.043C126.283 47.1523 124.838 49.1641 123.744 51.0781C123.256 51.918 122.963 52.3965 122.865 52.5137C122.768 52.6113 122.631 52.6602 122.455 52.6602ZM148.236 46.8594C147.865 46.8594 147.582 46.8105 147.387 46.7129C146.566 46.2832 146.156 45.4531 146.156 44.2227C146.156 43.3242 146.352 42.1621 146.742 40.7363V40.707C146.742 40.6875 146.732 40.6777 146.713 40.6777C146.674 40.6777 146.293 41 145.57 41.6445C143.91 43.1289 142.641 43.8711 141.762 43.8711C141.254 43.8711 140.883 43.6074 140.648 43.0801C140.551 42.8066 140.502 42.5137 140.502 42.2012C140.502 41.3613 140.902 40.4043 141.703 39.3301C143.188 37.6309 144.73 36.7812 146.332 36.7812C147.348 36.7812 148.109 37.1621 148.617 37.9238C148.695 38.041 148.734 38.2168 148.734 38.4512C148.734 39.1152 148.617 39.5938 148.383 39.8867C148.148 40.1797 147.934 40.6387 147.738 41.2637C147.348 42.5332 147.152 43.5586 147.152 44.3398C147.152 44.8672 147.289 45.2871 147.562 45.5996C147.758 45.834 147.992 45.9512 148.266 45.9512C149.184 45.9512 150.834 45.0137 153.217 43.1387C154.096 42.4355 154.711 41.8594 155.062 41.4102C155.414 40.9414 155.59 40.4824 155.59 40.0332C155.59 39.5645 155.707 39.2422 155.941 39.0664C156.176 38.8906 156.4 38.8027 156.615 38.8027C156.986 38.8027 157.25 38.9883 157.406 39.3594C157.484 39.5938 157.523 39.8184 157.523 40.0332C157.523 40.6777 157.328 41.1172 156.938 41.3516C156.762 41.4297 156.293 41.8008 155.531 42.4648C154.32 43.5195 153.139 44.4473 151.986 45.248C150.834 46.0293 149.955 46.5078 149.35 46.6836C148.998 46.8008 148.627 46.8594 148.236 46.8594ZM141.791 42.7578C142.221 42.7578 143.012 42.25 144.164 41.2344C145.16 40.3555 145.746 39.7207 145.922 39.3301C145.98 39.1934 146.01 38.998 146.01 38.7441C146.01 38.3926 145.834 38.2168 145.482 38.2168C145.15 38.2168 144.711 38.3926 144.164 38.7441C143.051 39.4668 142.279 40.3262 141.85 41.3223C141.635 41.8105 141.527 42.1816 141.527 42.4355C141.527 42.6504 141.615 42.7578 141.791 42.7578ZM156.381 38.1875C156.654 37.9336 156.977 37.8359 157.348 37.8945C157.738 37.9336 158.041 38.1094 158.256 38.4219C158.471 38.793 158.51 39.2617 158.373 39.8281C158.236 40.375 157.973 40.7559 157.582 40.9707C157.367 41.0684 157.133 41.3418 156.879 41.791C156.645 42.2207 156.352 42.9141 156 43.8711C155.062 46.3906 154.887 47.9922 155.473 48.6758C155.57 48.7734 155.678 48.8418 155.795 48.8809C155.912 48.9004 156.127 48.9004 156.439 48.8809C157.846 48.7441 160.463 47.2402 164.291 44.3691C167.475 41.9863 169.066 40.4824 169.066 39.8574C169.066 39.2324 169.359 38.7734 169.945 38.4805C170.551 38.1875 171.127 38.2363 171.674 38.627C171.889 38.8418 172.006 39.125 172.025 39.4766C172.064 39.8086 172.006 40.1113 171.85 40.3848C171.752 40.541 171.615 40.6973 171.439 40.8535C171.264 41.0098 171.078 41.1562 170.883 41.293C170.707 41.4102 170.57 41.4688 170.473 41.4688C170.316 41.4688 169.994 41.625 169.506 41.9375C169.018 42.2305 168.275 42.7578 167.279 43.5195C161.967 47.4648 158.539 49.584 156.996 49.877C156.625 49.9746 156.332 50.0234 156.117 50.0234C155.902 50.0234 155.668 49.9746 155.414 49.877C155.277 49.8184 155.141 49.75 155.004 49.6719C154.848 49.5742 154.73 49.4766 154.652 49.3789C154.457 49.1641 154.301 48.8613 154.184 48.4707C154.047 48.0801 153.979 47.709 153.979 47.3574C153.979 46.9668 154.047 46.4297 154.184 45.7461C154.32 45.043 154.496 44.3496 154.711 43.666C155.023 42.6699 155.248 41.9082 155.385 41.3809C155.521 40.8535 155.59 40.4434 155.59 40.1504C155.59 39.8184 155.668 39.457 155.824 39.0664C155.98 38.6758 156.166 38.3828 156.381 38.1875ZM160.043 34.9941C159.828 35.4043 159.535 35.668 159.164 35.7852C158.793 35.9023 158.412 35.8535 158.021 35.6387C157.631 35.3652 157.416 35.0039 157.377 34.5547C157.357 34.1055 157.484 33.6953 157.758 33.3242C158.031 32.9336 158.402 32.7383 158.871 32.7383C159.418 32.7383 159.828 32.9922 160.102 33.5C160.336 33.9688 160.316 34.4668 160.043 34.9941ZM175.717 58.666C175.893 58.334 176.186 57.7188 176.596 56.8203C176.986 55.9414 177.416 54.9746 177.885 53.9199C184.076 40.1895 190.111 28.666 195.99 19.3496C196.791 18.0996 197.377 17.2598 197.748 16.8301C198.119 16.3809 198.441 16.1562 198.715 16.1562C199.34 16.1562 199.564 16.8398 199.389 18.207C199.35 18.4609 199.271 18.9785 199.154 19.7598C199.037 20.5215 198.832 21.7617 198.539 23.4805C198.246 25.1797 197.846 27.5527 197.338 30.5996C196.83 33.666 196.039 37.7578 194.965 42.875C193.734 48.5977 193.119 52.4648 193.119 54.4766C193.119 54.75 193.129 54.9941 193.148 55.209C193.168 55.4238 193.188 55.5508 193.207 55.5898C193.266 55.6289 193.373 55.5508 193.529 55.3555C193.705 55.1602 193.969 54.7793 194.32 54.2129C194.672 53.6465 195.15 52.8164 195.756 51.7227C196.381 50.6289 197.172 49.2227 198.129 47.5039C203.168 38.3828 207.123 31.6934 209.994 27.4355C214.896 20.3066 219.584 14.4766 224.057 9.94531C225.092 8.89062 225.863 8.22656 226.371 7.95312C226.879 7.67969 227.289 7.70898 227.602 8.04102C228.07 8.37305 228.119 9.42773 227.748 11.2051C227.553 12.123 227.289 13.0898 226.957 14.1055C226.645 15.1211 226.117 16.5859 225.375 18.5C221.254 29.3203 218.324 38.334 216.586 45.541C215.219 51.2832 214.281 56.8203 213.773 62.1523C213.754 62.1914 213.744 62.2207 213.744 62.2402C213.686 62.8457 213.646 63.3145 213.627 63.6465C213.607 63.998 213.598 64.252 213.598 64.4082C213.617 64.584 213.646 64.7012 213.686 64.7598C213.744 64.8184 213.812 64.8672 213.891 64.9062C213.91 64.9062 213.92 64.916 213.92 64.9355C214.271 65.1113 214.486 65.3945 214.564 65.7852C214.643 66.1758 214.584 66.6055 214.389 67.0742C214.115 67.6016 213.773 67.9434 213.363 68.0996C212.973 68.2754 212.631 68.207 212.338 67.8945C212.006 67.543 211.918 66.752 212.074 65.5215C212.133 65.248 212.191 64.7891 212.25 64.1445C212.328 63.5 212.416 62.8262 212.514 62.123C213.471 54.1738 215.072 46.2637 217.318 38.3926C218.061 35.8535 219.057 32.7188 220.307 28.9883C221.576 25.2383 222.855 21.6055 224.145 18.0898C224.418 17.3477 224.691 16.5957 224.965 15.834C225.238 15.0527 225.453 14.4375 225.609 13.9883C225.766 13.4414 225.922 12.8359 226.078 12.1719C226.254 11.5078 226.391 10.9219 226.488 10.4141C226.586 9.90625 226.615 9.62305 226.576 9.56445C226.576 9.54492 226.566 9.53516 226.547 9.53516C226.527 9.53516 226.508 9.54492 226.488 9.56445C226.469 9.58398 226.43 9.61328 226.371 9.65234C226.332 9.69141 226.264 9.75 226.166 9.82812C226.088 9.88672 225.98 9.97461 225.844 10.0918C225.727 10.209 225.58 10.3555 225.404 10.5312C225.229 10.6875 225.023 10.8828 224.789 11.1172C223.695 12.1719 222.25 13.7344 220.453 15.8047C218.676 17.8555 216.977 19.9258 215.355 22.0156C210.59 28.1875 205.004 37.2109 198.598 49.0859C197.328 51.4297 196.322 53.207 195.58 54.418C194.838 55.6289 194.242 56.4102 193.793 56.7617C193.363 57.1133 192.973 57.1719 192.621 56.9375C192.387 56.8203 192.221 56.5762 192.123 56.2051C192.045 55.8535 192.016 55.2285 192.035 54.3301C192.016 53.2363 192.152 51.7617 192.445 49.9062C192.758 48.0312 193.324 45.1211 194.145 41.1758C194.711 38.3828 195.15 36.1367 195.463 34.4375C195.795 32.7383 196.156 30.7656 196.547 28.5195C196.742 27.3477 196.947 26.166 197.162 24.9746C197.357 23.8027 197.514 22.8945 197.631 22.25C198.139 19.3789 198.344 17.9434 198.246 17.9434C198.207 17.9434 197.934 18.3438 197.426 19.1445C196.918 19.9258 196.342 20.834 195.697 21.8691C195.072 22.8848 194.525 23.7832 194.057 24.5645C191.146 29.5059 187.934 35.6094 184.418 42.875C183.051 45.6875 181.967 47.9727 181.166 49.7305C180.365 51.4688 179.506 53.4414 178.588 55.6484C177.787 57.543 177.162 58.9785 176.713 59.9551C176.244 60.9316 175.873 61.5762 175.6 61.8887C175.307 62.2207 175.023 62.3867 174.75 62.3867C174.438 62.3867 174.184 62.2695 173.988 62.0352C173.793 61.8594 173.646 61.5859 173.549 61.2148C173.451 60.8633 173.363 60.2871 173.285 59.4863C173.188 57.3965 173.227 55.8535 173.402 54.8574C173.578 53.8613 173.793 53.041 174.047 52.3965C174.086 52.2793 174.125 52.1621 174.164 52.0449C174.652 51.0098 175.268 50.5117 176.01 50.5508C176.732 50.5703 177.162 51.0879 177.299 52.1035C177.318 52.416 177.309 52.6895 177.27 52.9238C177.211 53.1582 177.104 53.4902 176.947 53.9199C176.459 55.209 175.932 56.3223 175.365 57.2598C175.014 57.8262 174.936 58.5293 175.131 59.3691C175.15 59.4863 175.18 59.5449 175.219 59.5449C175.238 59.5645 175.287 59.5059 175.365 59.3691C175.443 59.2324 175.561 58.998 175.717 58.666ZM224.613 55.0332C224.398 55.0332 224.232 55.0137 224.115 54.9746C223.998 54.916 223.871 54.8184 223.734 54.6816C223.168 54.0957 223.168 53.4805 223.734 52.8359C224.066 52.5039 224.467 52.3672 224.936 52.4258C225.404 52.4648 225.756 52.6797 225.99 53.0703C226.088 53.2656 226.137 53.4609 226.137 53.6562C226.137 53.832 226.088 54.0371 225.99 54.2715C225.717 54.7793 225.258 55.0332 224.613 55.0332ZM229.477 66.4883C228.617 66.4883 228.031 66.2637 227.719 65.8145C227.465 65.4824 227.338 65.1406 227.338 64.7891C227.338 64.1055 227.758 63.2266 228.598 62.1523C230.219 60.0234 232.777 57.7773 236.273 55.4141C239.77 53.0508 243.744 50.873 248.197 48.8809C249.545 48.2754 250.248 47.9238 250.307 47.8262C250.365 47.7285 250.395 47.5723 250.395 47.3574L250.365 46.5371C250.17 42.3184 247.924 37.4941 243.627 32.0645C241.361 29.0957 240.023 26.957 239.613 25.6484C239.301 24.6523 239.145 23.6953 239.145 22.7773C239.145 19.7109 240.854 16.9277 244.271 14.4277C248.432 11.2637 253.373 9.31055 259.096 8.56836C260.443 8.39258 261.732 8.30469 262.963 8.30469C263.725 8.30469 264.75 8.36328 266.039 8.48047C268.871 8.73438 270.531 9.78906 271.02 11.6445C271.059 11.8203 271.078 12.0059 271.078 12.2012C271.078 14.6426 268.217 17.9141 262.494 22.0156C258.607 24.7891 255.951 26.1758 254.525 26.1758C253.412 26.1758 252.689 25.7754 252.357 24.9746C252.26 24.7598 252.211 24.5449 252.211 24.3301C252.211 24.0176 252.309 23.7051 252.504 23.3926C252.719 23.0605 252.992 22.8945 253.324 22.8945C253.754 22.8945 254.115 22.9434 254.408 23.041C254.623 23.0605 254.848 23.0703 255.082 23.0703C256.352 23.0703 257.836 22.6113 259.535 21.6934C261.234 20.7754 262.914 19.6035 264.574 18.1777C267.621 15.5605 269.145 13.7441 269.145 12.7285C269.145 12.2207 268.744 11.6836 267.943 11.1172C266.986 10.4531 265.082 10.1211 262.23 10.1211C260.18 10.1211 257.836 10.4141 255.199 11C252.582 11.5664 250.004 12.5527 247.465 13.959C244.945 15.3652 242.953 17.2109 241.488 19.4961C240.883 20.5117 240.58 21.5273 240.58 22.543C240.58 22.8945 240.668 23.5 240.844 24.3594C241.117 25.8047 242.445 28.0508 244.828 31.0977C245.766 32.2109 246.801 33.7246 247.934 35.6387C248.773 37.0645 249.398 38.2559 249.809 39.2129C250.707 41.3027 251.293 43.5195 251.566 45.8633C251.664 46.7422 251.752 47.2012 251.83 47.2402C251.947 47.2402 252.445 47.0645 253.324 46.7129C256.566 45.4629 261.02 44.0078 266.684 42.3477C267.348 42.1328 267.816 41.7617 268.09 41.2344C268.363 40.6875 268.852 40.4141 269.555 40.4141H269.73C270.473 40.6094 270.844 41.0586 270.844 41.7617C270.844 42.1328 270.717 42.5234 270.463 42.9336C270.209 43.3242 269.809 43.5293 269.262 43.5488C268.734 43.5488 267.426 43.7539 265.336 44.1641C262.602 44.7109 259.477 45.6582 255.961 47.0059C253.461 47.9824 252.113 48.5391 251.918 48.6758C251.82 48.7734 251.654 49.3594 251.42 50.4336C250.658 54.3203 247.953 57.875 243.305 61.0977C240.434 63.168 237.279 64.6914 233.842 65.668C231.967 66.2148 230.512 66.4883 229.477 66.4883ZM229.506 64.8184C230.521 64.8184 232.064 64.5156 234.135 63.9102C235.463 63.5195 236.635 63.1094 237.65 62.6797C242.182 60.668 245.648 58.0605 248.051 54.8574C248.969 53.6465 249.604 52.4844 249.955 51.3711C250.209 50.5117 250.336 49.9355 250.336 49.6426C250.336 49.5645 250.326 49.5156 250.307 49.4961C250.307 49.4766 250.297 49.4668 250.277 49.4668C250.062 49.4668 249.291 49.7793 247.963 50.4043C243.9 52.3379 240.238 54.457 236.977 56.7617C233.246 59.3984 230.678 61.8105 229.271 63.998C229.096 64.291 229.008 64.4766 229.008 64.5547C229.008 64.7305 229.174 64.8184 229.506 64.8184ZM275.736 46.8594C275.365 46.8594 275.082 46.8105 274.887 46.7129C274.066 46.2832 273.656 45.4531 273.656 44.2227C273.656 43.3242 273.852 42.1621 274.242 40.7363V40.707C274.242 40.6875 274.232 40.6777 274.213 40.6777C274.174 40.6777 273.793 41 273.07 41.6445C271.41 43.1289 270.141 43.8711 269.262 43.8711C268.754 43.8711 268.383 43.6074 268.148 43.0801C268.051 42.8066 268.002 42.5137 268.002 42.2012C268.002 41.3613 268.402 40.4043 269.203 39.3301C270.688 37.6309 272.23 36.7812 273.832 36.7812C274.848 36.7812 275.609 37.1621 276.117 37.9238C276.195 38.041 276.234 38.2168 276.234 38.4512C276.234 39.1152 276.117 39.5938 275.883 39.8867C275.648 40.1797 275.434 40.6387 275.238 41.2637C274.848 42.5332 274.652 43.5586 274.652 44.3398C274.652 44.8672 274.789 45.2871 275.062 45.5996C275.258 45.834 275.492 45.9512 275.766 45.9512C276.684 45.9512 278.334 45.0137 280.717 43.1387C281.596 42.4355 282.211 41.8594 282.562 41.4102C282.914 40.9414 283.09 40.4824 283.09 40.0332C283.09 39.5645 283.207 39.2422 283.441 39.0664C283.676 38.8906 283.9 38.8027 284.115 38.8027C284.486 38.8027 284.75 38.9883 284.906 39.3594C284.984 39.5938 285.023 39.8184 285.023 40.0332C285.023 40.6777 284.828 41.1172 284.438 41.3516C284.262 41.4297 283.793 41.8008 283.031 42.4648C281.82 43.5195 280.639 44.4473 279.486 45.248C278.334 46.0293 277.455 46.5078 276.85 46.6836C276.498 46.8008 276.127 46.8594 275.736 46.8594ZM269.291 42.7578C269.721 42.7578 270.512 42.25 271.664 41.2344C272.66 40.3555 273.246 39.7207 273.422 39.3301C273.48 39.1934 273.51 38.998 273.51 38.7441C273.51 38.3926 273.334 38.2168 272.982 38.2168C272.65 38.2168 272.211 38.3926 271.664 38.7441C270.551 39.4668 269.779 40.3262 269.35 41.3223C269.135 41.8105 269.027 42.1816 269.027 42.4355C269.027 42.6504 269.115 42.7578 269.291 42.7578ZM280.893 56.1758H280.775C280.111 56.1758 279.779 55.7168 279.779 54.7988C279.779 54.3691 279.857 53.832 280.014 53.1875C280.17 52.543 280.443 51.5273 280.834 50.1406C281.225 48.7539 281.625 47.3574 282.035 45.9512L282.094 45.7461C282.348 44.9062 282.553 44.252 282.709 43.7832C282.846 43.2949 282.943 42.9336 283.002 42.6992C283.041 42.4648 283.061 42.2793 283.061 42.1426C283.061 41.8691 283.031 41.7031 282.973 41.6445C282.934 41.4102 282.914 41.1855 282.914 40.9707C282.914 40.1699 283.246 39.584 283.91 39.2129C284.145 39.1348 284.359 39.0957 284.555 39.0957C285.141 39.0957 285.434 39.5742 285.434 40.5312C285.434 41.3711 285.248 42.1719 284.877 42.9336C284.252 44.1836 283.285 46.9082 281.977 51.1074C281.41 52.9043 281.088 54.1641 281.01 54.8867C282.533 53.3633 284.096 51.5371 285.697 49.4082C287.299 47.2793 288.549 45.3945 289.447 43.7539C289.115 43.4023 288.949 43.1484 288.949 42.9922C288.949 42.7969 289.066 42.6309 289.301 42.4941C289.418 42.416 289.555 42.377 289.711 42.377C289.789 42.377 289.896 42.4062 290.033 42.4648C290.17 42.5039 290.307 42.5234 290.443 42.5234C291.01 42.5234 291.947 42.2402 293.256 41.6738C294.74 41.0488 295.629 40.4141 295.922 39.7695C296.078 39.4961 296.273 39.2715 296.508 39.0957C296.762 38.9004 296.996 38.8027 297.211 38.8027C297.406 38.8027 297.602 38.8711 297.797 39.0078C297.992 39.1445 298.129 39.3203 298.207 39.5352C298.285 39.7305 298.324 39.9258 298.324 40.1211C298.324 40.2969 298.256 40.502 298.119 40.7363C297.885 41.1074 296.625 41.7031 294.34 42.5234C293.07 42.9727 291.82 43.3535 290.59 43.666L290.18 44.4863C289.574 45.7754 288.305 47.709 286.371 50.2871C283.734 53.8223 282.016 55.7363 281.215 56.0293L280.893 56.1758ZM302.689 46.8594C302.318 46.8594 302.035 46.8105 301.84 46.7129C301.02 46.2832 300.609 45.4531 300.609 44.2227C300.609 43.3242 300.805 42.1621 301.195 40.7363V40.707C301.195 40.6875 301.186 40.6777 301.166 40.6777C301.127 40.6777 300.746 41 300.023 41.6445C298.363 43.1289 297.094 43.8711 296.215 43.8711C295.707 43.8711 295.336 43.6074 295.102 43.0801C295.004 42.8066 294.955 42.5137 294.955 42.2012C294.955 41.3613 295.355 40.4043 296.156 39.3301C297.641 37.6309 299.184 36.7812 300.785 36.7812C301.801 36.7812 302.562 37.1621 303.07 37.9238C303.148 38.041 303.188 38.2168 303.188 38.4512C303.188 39.1152 303.07 39.5938 302.836 39.8867C302.602 40.1797 302.387 40.6387 302.191 41.2637C301.801 42.5332 301.605 43.5586 301.605 44.3398C301.605 44.8672 301.742 45.2871 302.016 45.5996C302.211 45.834 302.445 45.9512 302.719 45.9512C303.637 45.9512 305.287 45.0137 307.67 43.1387C308.549 42.4355 309.164 41.8594 309.516 41.4102C309.867 40.9414 310.043 40.4824 310.043 40.0332C310.043 39.5645 310.16 39.2422 310.395 39.0664C310.629 38.8906 310.854 38.8027 311.068 38.8027C311.439 38.8027 311.703 38.9883 311.859 39.3594C311.938 39.5938 311.977 39.8184 311.977 40.0332C311.977 40.6777 311.781 41.1172 311.391 41.3516C311.215 41.4297 310.746 41.8008 309.984 42.4648C308.773 43.5195 307.592 44.4473 306.439 45.248C305.287 46.0293 304.408 46.5078 303.803 46.6836C303.451 46.8008 303.08 46.8594 302.689 46.8594ZM296.244 42.7578C296.674 42.7578 297.465 42.25 298.617 41.2344C299.613 40.3555 300.199 39.7207 300.375 39.3301C300.434 39.1934 300.463 38.998 300.463 38.7441C300.463 38.3926 300.287 38.2168 299.936 38.2168C299.604 38.2168 299.164 38.3926 298.617 38.7441C297.504 39.4668 296.732 40.3262 296.303 41.3223C296.088 41.8105 295.98 42.1816 295.98 42.4355C295.98 42.6504 296.068 42.7578 296.244 42.7578ZM307.963 49.1152C307.689 48.8613 307.807 48.0508 308.314 46.6836C308.686 45.6094 308.988 44.7402 309.223 44.0762C309.457 43.4121 309.633 42.9043 309.75 42.5527C309.848 42.2012 309.906 41.9473 309.926 41.791C309.945 41.6348 309.936 41.5273 309.896 41.4688C309.721 40.8828 309.789 40.3262 310.102 39.7988C310.414 39.252 310.824 38.9785 311.332 38.9785C311.801 38.9785 312.123 39.1738 312.299 39.5645C312.494 39.9355 312.553 40.3652 312.475 40.8535C312.396 41.3418 312.182 41.7812 311.83 42.1719C311.713 42.3086 311.605 42.4355 311.508 42.5527C311.43 42.6699 311.391 42.748 311.391 42.7871C311.391 42.8066 311.312 42.9824 311.156 43.3145C311.02 43.6465 310.844 44.0469 310.629 44.5156C310.434 44.9648 310.268 45.3457 310.131 45.6582C309.994 45.9707 309.926 46.1367 309.926 46.1562C309.945 46.1562 310.043 46.0684 310.219 45.8926C310.395 45.6973 310.609 45.4531 310.863 45.1602C311.41 44.5547 312.104 43.8418 312.943 43.0215C313.803 42.2012 314.584 41.5078 315.287 40.9414C315.893 40.4531 316.459 40.082 316.986 39.8281C317.514 39.5547 317.924 39.4375 318.217 39.4766C318.979 39.5938 319.506 40.3945 319.799 41.8789C320.15 43.7539 320.658 44.8184 321.322 45.0723C321.986 45.3066 323.129 44.9844 324.75 44.1055C326.117 43.3828 327.318 42.6211 328.354 41.8203C329.408 41.0195 330.121 40.2969 330.492 39.6523C330.883 38.8711 331.381 38.4805 331.986 38.4805C332.396 38.4805 332.689 38.6465 332.865 38.9785C333.041 39.3105 333.09 39.6719 333.012 40.0625C332.934 40.4531 332.709 40.7656 332.338 41C332.24 41.0586 332.074 41.166 331.84 41.3223C331.605 41.459 331.371 41.6055 331.137 41.7617C326.234 44.7891 323.08 46.3027 321.674 46.3027C321.029 46.3027 320.443 46.0586 319.916 45.5703C319.408 45.1016 318.969 44.0762 318.598 42.4941C318.324 41.3027 318.08 40.707 317.865 40.707C317.748 40.707 317.436 40.8828 316.928 41.2344C316.439 41.5664 315.932 41.9375 315.404 42.3477C314.701 42.9336 313.9 43.6855 313.002 44.6035C312.123 45.502 311.283 46.4199 310.482 47.3574C310.092 47.8457 309.75 48.2656 309.457 48.6172C309.145 48.9492 308.949 49.1348 308.871 49.1738C308.715 49.2715 308.549 49.3105 308.373 49.291C308.178 49.2715 308.041 49.2129 307.963 49.1152ZM331.986 38.1875C332.26 37.9336 332.582 37.8359 332.953 37.8945C333.344 37.9336 333.646 38.1094 333.861 38.4219C334.076 38.793 334.115 39.2617 333.979 39.8281C333.842 40.375 333.578 40.7559 333.188 40.9707C332.973 41.0684 332.738 41.3418 332.484 41.791C332.25 42.2207 331.957 42.9141 331.605 43.8711C330.668 46.3906 330.492 47.9922 331.078 48.6758C331.176 48.7734 331.283 48.8418 331.4 48.8809C331.518 48.9004 331.732 48.9004 332.045 48.8809C333.451 48.7441 336.068 47.2402 339.896 44.3691C343.08 41.9863 344.672 40.4824 344.672 39.8574C344.672 39.2324 344.965 38.7734 345.551 38.4805C346.156 38.1875 346.732 38.2363 347.279 38.627C347.494 38.8418 347.611 39.125 347.631 39.4766C347.67 39.8086 347.611 40.1113 347.455 40.3848C347.357 40.541 347.221 40.6973 347.045 40.8535C346.869 41.0098 346.684 41.1562 346.488 41.293C346.312 41.4102 346.176 41.4688 346.078 41.4688C345.922 41.4688 345.6 41.625 345.111 41.9375C344.623 42.2305 343.881 42.7578 342.885 43.5195C337.572 47.4648 334.145 49.584 332.602 49.877C332.23 49.9746 331.938 50.0234 331.723 50.0234C331.508 50.0234 331.273 49.9746 331.02 49.877C330.883 49.8184 330.746 49.75 330.609 49.6719C330.453 49.5742 330.336 49.4766 330.258 49.3789C330.062 49.1641 329.906 48.8613 329.789 48.4707C329.652 48.0801 329.584 47.709 329.584 47.3574C329.584 46.9668 329.652 46.4297 329.789 45.7461C329.926 45.043 330.102 44.3496 330.316 43.666C330.629 42.6699 330.854 41.9082 330.99 41.3809C331.127 40.8535 331.195 40.4434 331.195 40.1504C331.195 39.8184 331.273 39.457 331.43 39.0664C331.586 38.6758 331.771 38.3828 331.986 38.1875ZM335.648 34.9941C335.434 35.4043 335.141 35.668 334.77 35.7852C334.398 35.9023 334.018 35.8535 333.627 35.6387C333.236 35.3652 333.021 35.0039 332.982 34.5547C332.963 34.1055 333.09 33.6953 333.363 33.3242C333.637 32.9336 334.008 32.7383 334.477 32.7383C335.023 32.7383 335.434 32.9922 335.707 33.5C335.941 33.9688 335.922 34.4668 335.648 34.9941Z" fill="black"></path>
                            <path d="M20.94 116.436V129H18.42V120.828L15.054 129H13.146L9.762 120.828V129H7.242V116.436H10.104L14.1 125.778L18.096 116.436H20.94ZM25.9515 120.576C26.2755 120.048 26.6955 119.634 27.2115 119.334C27.7395 119.034 28.3395 118.884 29.0115 118.884V121.53H28.3455C27.5535 121.53 26.9535 121.716 26.5455 122.088C26.1495 122.46 25.9515 123.108 25.9515 124.032V129H23.4315V119.028H25.9515V120.576ZM31.8248 129.126C31.3688 129.126 30.9908 128.988 30.6908 128.712C30.4028 128.424 30.2588 128.07 30.2588 127.65C30.2588 127.23 30.4028 126.882 30.6908 126.606C30.9908 126.318 31.3688 126.174 31.8248 126.174C32.2688 126.174 32.6348 126.318 32.9228 126.606C33.2108 126.882 33.3548 127.23 33.3548 127.65C33.3548 128.07 33.2108 128.424 32.9228 128.712C32.6348 128.988 32.2688 129.126 31.8248 129.126ZM53.3716 116.436V129H50.8516V120.828L47.4856 129H45.5776L42.1936 120.828V129H39.6736V116.436H42.5356L46.5316 125.778L50.5276 116.436H53.3716ZM55.2151 123.978C55.2151 122.97 55.4131 122.076 55.8091 121.296C56.2171 120.516 56.7631 119.916 57.4471 119.496C58.1431 119.076 58.9171 118.866 59.7691 118.866C60.5131 118.866 61.1611 119.016 61.7131 119.316C62.2771 119.616 62.7271 119.994 63.0631 120.45V119.028H65.6011V129H63.0631V127.542C62.7391 128.01 62.2891 128.4 61.7131 128.712C61.1491 129.012 60.4951 129.162 59.7511 129.162C58.9111 129.162 58.1431 128.946 57.4471 128.514C56.7631 128.082 56.2171 127.476 55.8091 126.696C55.4131 125.904 55.2151 124.998 55.2151 123.978ZM63.0631 124.014C63.0631 123.402 62.9431 122.88 62.7031 122.448C62.4631 122.004 62.1391 121.668 61.7311 121.44C61.3231 121.2 60.8851 121.08 60.4171 121.08C59.9491 121.08 59.5171 121.194 59.1211 121.422C58.7251 121.65 58.4011 121.986 58.1491 122.43C57.9091 122.862 57.7891 123.378 57.7891 123.978C57.7891 124.578 57.9091 125.106 58.1491 125.562C58.4011 126.006 58.7251 126.348 59.1211 126.588C59.5291 126.828 59.9611 126.948 60.4171 126.948C60.8851 126.948 61.3231 126.834 61.7311 126.606C62.1391 126.366 62.4631 126.03 62.7031 125.598C62.9431 125.154 63.0631 124.626 63.0631 124.014ZM70.9963 121.098V125.922C70.9963 126.258 71.0743 126.504 71.2303 126.66C71.3983 126.804 71.6743 126.876 72.0583 126.876H73.2283V129H71.6443C69.5203 129 68.4583 127.968 68.4583 125.904V121.098H67.2703V119.028H68.4583V116.562H70.9963V119.028H73.2283V121.098H70.9963ZM80.6568 118.884C81.4128 118.884 82.0848 119.052 82.6728 119.388C83.2608 119.712 83.7168 120.198 84.0408 120.846C84.3768 121.482 84.5448 122.25 84.5448 123.15V129H82.0248V123.492C82.0248 122.7 81.8268 122.094 81.4308 121.674C81.0348 121.242 80.4948 121.026 79.8108 121.026C79.1148 121.026 78.5628 121.242 78.1548 121.674C77.7588 122.094 77.5608 122.7 77.5608 123.492V129H75.0408V115.68H77.5608V120.27C77.8848 119.838 78.3168 119.502 78.8568 119.262C79.3968 119.01 79.9968 118.884 80.6568 118.884ZM96.3552 119.028V129H93.8172V127.74C93.4932 128.172 93.0672 128.514 92.5392 128.766C92.0232 129.006 91.4592 129.126 90.8472 129.126C90.0672 129.126 89.3772 128.964 88.7772 128.64C88.1772 128.304 87.7032 127.818 87.3552 127.182C87.0192 126.534 86.8512 125.766 86.8512 124.878V119.028H89.3712V124.518C89.3712 125.31 89.5692 125.922 89.9652 126.354C90.3612 126.774 90.9012 126.984 91.5852 126.984C92.2812 126.984 92.8272 126.774 93.2232 126.354C93.6192 125.922 93.8172 125.31 93.8172 124.518V119.028H96.3552ZM101.362 120.576C101.686 120.048 102.106 119.634 102.622 119.334C103.15 119.034 103.75 118.884 104.422 118.884V121.53H103.756C102.964 121.53 102.364 121.716 101.956 122.088C101.56 122.46 101.362 123.108 101.362 124.032V129H98.8416V119.028H101.362V120.576ZM108.639 120.486C108.963 120.006 109.407 119.616 109.971 119.316C110.547 119.016 111.201 118.866 111.933 118.866C112.785 118.866 113.553 119.076 114.237 119.496C114.933 119.916 115.479 120.516 115.875 121.296C116.283 122.064 116.487 122.958 116.487 123.978C116.487 124.998 116.283 125.904 115.875 126.696C115.479 127.476 114.933 128.082 114.237 128.514C113.553 128.946 112.785 129.162 111.933 129.162C111.189 129.162 110.535 129.018 109.971 128.73C109.419 128.43 108.975 128.046 108.639 127.578V129H106.119V115.68H108.639V120.486ZM113.913 123.978C113.913 123.378 113.787 122.862 113.535 122.43C113.295 121.986 112.971 121.65 112.563 121.422C112.167 121.194 111.735 121.08 111.267 121.08C110.811 121.08 110.379 121.2 109.971 121.44C109.575 121.668 109.251 122.004 108.999 122.448C108.759 122.892 108.639 123.414 108.639 124.014C108.639 124.614 108.759 125.136 108.999 125.58C109.251 126.024 109.575 126.366 109.971 126.606C110.379 126.834 110.811 126.948 111.267 126.948C111.735 126.948 112.167 126.828 112.563 126.588C112.971 126.348 113.295 126.006 113.535 125.562C113.787 125.118 113.913 124.59 113.913 123.978ZM123.934 118.884C124.69 118.884 125.362 119.052 125.95 119.388C126.538 119.712 126.994 120.198 127.318 120.846C127.654 121.482 127.822 122.25 127.822 123.15V129H125.302V123.492C125.302 122.7 125.104 122.094 124.708 121.674C124.312 121.242 123.772 121.026 123.088 121.026C122.392 121.026 121.84 121.242 121.432 121.674C121.036 122.094 120.838 122.7 120.838 123.492V129H118.318V115.68H120.838V120.27C121.162 119.838 121.594 119.502 122.134 119.262C122.674 119.01 123.274 118.884 123.934 118.884ZM129.571 123.978C129.571 122.97 129.769 122.076 130.165 121.296C130.573 120.516 131.119 119.916 131.803 119.496C132.499 119.076 133.273 118.866 134.125 118.866C134.869 118.866 135.517 119.016 136.069 119.316C136.633 119.616 137.083 119.994 137.419 120.45V119.028H139.957V129H137.419V127.542C137.095 128.01 136.645 128.4 136.069 128.712C135.505 129.012 134.851 129.162 134.107 129.162C133.267 129.162 132.499 128.946 131.803 128.514C131.119 128.082 130.573 127.476 130.165 126.696C129.769 125.904 129.571 124.998 129.571 123.978ZM137.419 124.014C137.419 123.402 137.299 122.88 137.059 122.448C136.819 122.004 136.495 121.668 136.087 121.44C135.679 121.2 135.241 121.08 134.773 121.08C134.305 121.08 133.873 121.194 133.477 121.422C133.081 121.65 132.757 121.986 132.505 122.43C132.265 122.862 132.145 123.378 132.145 123.978C132.145 124.578 132.265 125.106 132.505 125.562C132.757 126.006 133.081 126.348 133.477 126.588C133.885 126.828 134.317 126.948 134.773 126.948C135.241 126.948 135.679 126.834 136.087 126.606C136.495 126.366 136.819 126.03 137.059 125.598C137.299 125.154 137.419 124.626 137.419 124.014ZM143.696 117.84C143.252 117.84 142.88 117.702 142.58 117.426C142.292 117.138 142.148 116.784 142.148 116.364C142.148 115.944 142.292 115.596 142.58 115.32C142.88 115.032 143.252 114.888 143.696 114.888C144.14 114.888 144.506 115.032 144.794 115.32C145.094 115.596 145.244 115.944 145.244 116.364C145.244 116.784 145.094 117.138 144.794 117.426C144.506 117.702 144.14 117.84 143.696 117.84ZM144.938 119.028V129H142.418V119.028H144.938ZM165.415 116.436V129H162.895V120.828L159.529 129H157.621L154.237 120.828V129H151.717V116.436H154.579L158.575 125.778L162.571 116.436H165.415ZM169.022 129.126C168.566 129.126 168.188 128.988 167.888 128.712C167.6 128.424 167.456 128.07 167.456 127.65C167.456 127.23 167.6 126.882 167.888 126.606C168.188 126.318 168.566 126.174 169.022 126.174C169.466 126.174 169.832 126.318 170.12 126.606C170.408 126.882 170.552 127.23 170.552 127.65C170.552 128.07 170.408 128.424 170.12 128.712C169.832 128.988 169.466 129.126 169.022 129.126ZM181.209 129.126C180.333 129.126 179.541 128.976 178.833 128.676C178.137 128.376 177.585 127.944 177.177 127.38C176.769 126.816 176.559 126.15 176.547 125.382H179.247C179.283 125.898 179.463 126.306 179.787 126.606C180.123 126.906 180.579 127.056 181.155 127.056C181.743 127.056 182.205 126.918 182.541 126.642C182.877 126.354 183.045 125.982 183.045 125.526C183.045 125.154 182.931 124.848 182.703 124.608C182.475 124.368 182.187 124.182 181.839 124.05C181.503 123.906 181.035 123.75 180.435 123.582C179.619 123.342 178.953 123.108 178.437 122.88C177.933 122.64 177.495 122.286 177.123 121.818C176.763 121.338 176.583 120.702 176.583 119.91C176.583 119.166 176.769 118.518 177.141 117.966C177.513 117.414 178.035 116.994 178.707 116.706C179.379 116.406 180.147 116.256 181.011 116.256C182.307 116.256 183.357 116.574 184.161 117.21C184.977 117.834 185.427 118.71 185.511 119.838H182.739C182.715 119.406 182.529 119.052 182.181 118.776C181.845 118.488 181.395 118.344 180.831 118.344C180.339 118.344 179.943 118.47 179.643 118.722C179.355 118.974 179.211 119.34 179.211 119.82C179.211 120.156 179.319 120.438 179.535 120.666C179.763 120.882 180.039 121.062 180.363 121.206C180.699 121.338 181.167 121.494 181.767 121.674C182.583 121.914 183.249 122.154 183.765 122.394C184.281 122.634 184.725 122.994 185.097 123.474C185.469 123.954 185.655 124.584 185.655 125.364C185.655 126.036 185.481 126.66 185.133 127.236C184.785 127.812 184.275 128.274 183.603 128.622C182.931 128.958 182.133 129.126 181.209 129.126ZM187.192 123.978C187.192 122.97 187.39 122.076 187.786 121.296C188.194 120.516 188.74 119.916 189.424 119.496C190.12 119.076 190.894 118.866 191.746 118.866C192.49 118.866 193.138 119.016 193.69 119.316C194.254 119.616 194.704 119.994 195.04 120.45V119.028H197.578V129H195.04V127.542C194.716 128.01 194.266 128.4 193.69 128.712C193.126 129.012 192.472 129.162 191.728 129.162C190.888 129.162 190.12 128.946 189.424 128.514C188.74 128.082 188.194 127.476 187.786 126.696C187.39 125.904 187.192 124.998 187.192 123.978ZM195.04 124.014C195.04 123.402 194.92 122.88 194.68 122.448C194.44 122.004 194.116 121.668 193.708 121.44C193.3 121.2 192.862 121.08 192.394 121.08C191.926 121.08 191.494 121.194 191.098 121.422C190.702 121.65 190.378 121.986 190.126 122.43C189.886 122.862 189.766 123.378 189.766 123.978C189.766 124.578 189.886 125.106 190.126 125.562C190.378 126.006 190.702 126.348 191.098 126.588C191.506 126.828 191.938 126.948 192.394 126.948C192.862 126.948 193.3 126.834 193.708 126.606C194.116 126.366 194.44 126.03 194.68 125.598C194.92 125.154 195.04 124.626 195.04 124.014ZM204.197 126.678L206.717 119.028H209.399L205.709 129H202.649L198.977 119.028H201.677L204.197 126.678ZM210.166 123.978C210.166 122.97 210.364 122.076 210.76 121.296C211.168 120.516 211.714 119.916 212.398 119.496C213.094 119.076 213.868 118.866 214.72 118.866C215.464 118.866 216.112 119.016 216.664 119.316C217.228 119.616 217.678 119.994 218.014 120.45V119.028H220.552V129H218.014V127.542C217.69 128.01 217.24 128.4 216.664 128.712C216.1 129.012 215.446 129.162 214.702 129.162C213.862 129.162 213.094 128.946 212.398 128.514C211.714 128.082 211.168 127.476 210.76 126.696C210.364 125.904 210.166 124.998 210.166 123.978ZM218.014 124.014C218.014 123.402 217.894 122.88 217.654 122.448C217.414 122.004 217.09 121.668 216.682 121.44C216.274 121.2 215.836 121.08 215.368 121.08C214.9 121.08 214.468 121.194 214.072 121.422C213.676 121.65 213.352 121.986 213.1 122.43C212.86 122.862 212.74 123.378 212.74 123.978C212.74 124.578 212.86 125.106 213.1 125.562C213.352 126.006 213.676 126.348 214.072 126.588C214.48 126.828 214.912 126.948 215.368 126.948C215.836 126.948 216.274 126.834 216.682 126.606C217.09 126.366 217.414 126.03 217.654 125.598C217.894 125.154 218.014 124.626 218.014 124.014ZM228.539 118.884C229.727 118.884 230.687 119.262 231.419 120.018C232.151 120.762 232.517 121.806 232.517 123.15V129H229.997V123.492C229.997 122.7 229.799 122.094 229.403 121.674C229.007 121.242 228.467 121.026 227.783 121.026C227.087 121.026 226.535 121.242 226.127 121.674C225.731 122.094 225.533 122.7 225.533 123.492V129H223.013V119.028H225.533V120.27C225.869 119.838 226.295 119.502 226.811 119.262C227.339 119.01 227.915 118.884 228.539 118.884ZM236.192 117.84C235.748 117.84 235.376 117.702 235.076 117.426C234.788 117.138 234.644 116.784 234.644 116.364C234.644 115.944 234.788 115.596 235.076 115.32C235.376 115.032 235.748 114.888 236.192 114.888C236.636 114.888 237.002 115.032 237.29 115.32C237.59 115.596 237.74 115.944 237.74 116.364C237.74 116.784 237.59 117.138 237.29 117.426C237.002 117.702 236.636 117.84 236.192 117.84ZM237.434 119.028V129H234.914V119.028H237.434Z" fill="#10357C"></path>
                            <path d="M14.96 152.634L13.84 152.214C13.434 153.46 12.468 154.09 11.236 154.09C9.318 154.09 8.128 152.704 8.128 150.38C8.128 148.042 9.402 146.67 11.292 146.67C12.524 146.67 13.28 147.23 13.686 148.294L14.792 147.776C14.204 146.376 13 145.62 11.208 145.62C8.632 145.62 6.952 147.454 6.952 150.38C6.952 153.306 8.604 155.14 11.236 155.14C12.972 155.14 14.372 154.216 14.96 152.634ZM20.3017 147.86C19.3497 147.86 18.5097 148.21 18.0197 149.05V144.78H16.8997V155H18.0197V151.29C18.0197 149.498 19.1677 148.84 20.1897 148.84C21.1557 148.84 21.9117 149.358 21.9117 150.912V155H23.0317V150.52C23.0317 148.714 21.7997 147.86 20.3017 147.86ZM31.3076 154.188C30.9156 154.188 30.7756 154.02 30.7756 153.684V150.24C30.7756 148.616 29.6136 147.86 28.0176 147.86C26.6596 147.86 25.5536 148.532 25.1896 149.568L26.0156 150.17C26.3936 149.288 27.0936 148.84 28.0176 148.84C29.0676 148.84 29.6556 149.456 29.6556 150.38V150.772L27.7936 151.08C25.9876 151.388 25.0636 152.214 25.0636 153.264C25.0636 154.524 26.1276 155.14 27.4436 155.14C28.3396 155.14 29.2496 154.762 29.6976 154.104C29.8236 154.888 30.2716 155.14 30.9576 155.14C31.3076 155.14 31.6016 155.07 31.7976 155L31.8676 154.118C31.6996 154.16 31.4896 154.188 31.3076 154.188ZM27.4996 154.16C26.7016 154.16 26.2256 153.852 26.2256 153.264C26.2256 152.606 26.8556 152.2 28.0876 151.976L29.6556 151.682V152.648C29.6556 153.572 28.6196 154.16 27.4996 154.16ZM34.0573 146.656C34.5613 146.656 34.8973 146.32 34.8973 145.816C34.8973 145.312 34.5613 144.976 34.0573 144.976C33.5533 144.976 33.2173 145.312 33.2173 145.816C33.2173 146.32 33.5533 146.656 34.0573 146.656ZM34.6173 148H33.4973V155H34.6173V148ZM40.5201 147.86C39.4281 147.86 38.6721 148.294 38.2801 149.148L38.1261 148H37.2161V155H38.3361V151.22C38.3361 149.652 39.3441 148.91 40.1841 148.91C40.5481 148.91 40.8561 148.98 41.0661 149.092L41.2901 148C41.0801 147.888 40.7581 147.86 40.5201 147.86ZM51.0649 147.86C50.1829 147.86 49.0629 148.28 48.6289 149.232C48.1669 148.294 47.2009 147.86 46.2209 147.86C45.3529 147.86 44.4849 148.238 43.9809 149.092L43.9109 148H42.9309V155H44.0509V151.262C44.0509 149.526 45.1989 148.84 46.1229 148.84C47.0469 148.84 47.7749 149.358 47.7749 150.632V155H48.8949V151.164C48.8949 149.666 49.8749 148.84 50.9669 148.84C51.8909 148.84 52.6189 149.358 52.6189 150.632V155H53.7389V150.52C53.7389 148.672 52.4089 147.86 51.0649 147.86ZM62.0147 154.188C61.6227 154.188 61.4827 154.02 61.4827 153.684V150.24C61.4827 148.616 60.3207 147.86 58.7247 147.86C57.3667 147.86 56.2607 148.532 55.8967 149.568L56.7227 150.17C57.1007 149.288 57.8007 148.84 58.7247 148.84C59.7747 148.84 60.3627 149.456 60.3627 150.38V150.772L58.5007 151.08C56.6947 151.388 55.7707 152.214 55.7707 153.264C55.7707 154.524 56.8347 155.14 58.1507 155.14C59.0467 155.14 59.9567 154.762 60.4047 154.104C60.5307 154.888 60.9787 155.14 61.6647 155.14C62.0147 155.14 62.3087 155.07 62.5047 155L62.5747 154.118C62.4067 154.16 62.1967 154.188 62.0147 154.188ZM58.2067 154.16C57.4087 154.16 56.9327 153.852 56.9327 153.264C56.9327 152.606 57.5627 152.2 58.7947 151.976L60.3627 151.682V152.648C60.3627 153.572 59.3267 154.16 58.2067 154.16ZM67.6063 147.86C66.6403 147.86 65.7443 148.21 65.2543 149.092L65.1843 148H64.2043V155H65.3243V151.276C65.3243 149.484 66.4723 148.84 67.4943 148.84C68.4603 148.84 69.2163 149.358 69.2163 150.912V155H70.3363V150.52C70.3363 148.714 69.1043 147.86 67.6063 147.86ZM73.4323 153.32C72.9283 153.32 72.5223 153.754 72.5223 154.258C72.5223 154.86 72.9563 155.14 73.2923 155.14C73.5163 155.14 73.6143 155.098 73.6843 155.042L73.7403 155.07C73.6143 155.658 73.1243 156.246 72.3683 156.498L72.9563 157.044C74.0203 156.54 74.4823 155.616 74.4823 154.678C74.4823 153.88 74.0903 153.32 73.4323 153.32ZM87.5085 155H88.8525L85.1285 149.526L88.8105 145.76H87.3405L82.6925 150.52V145.76H81.5725V155H82.6925V152.032L84.3445 150.352L87.5085 155ZM91.11 146.656C91.614 146.656 91.95 146.32 91.95 145.816C91.95 145.312 91.614 144.976 91.11 144.976C90.606 144.976 90.27 145.312 90.27 145.816C90.27 146.32 90.606 146.656 91.11 146.656ZM91.67 148H90.55V155H91.67V148ZM97.5728 147.86C96.4808 147.86 95.7248 148.294 95.3328 149.148L95.1788 148H94.2688V155H95.3888V151.22C95.3888 149.652 96.3968 148.91 97.2368 148.91C97.6008 148.91 97.9088 148.98 98.1188 149.092L98.3428 148C98.1328 147.888 97.8108 147.86 97.5728 147.86ZM105.532 154.188C105.14 154.188 105 154.02 105 153.684V150.24C105 148.616 103.838 147.86 102.242 147.86C100.884 147.86 99.7782 148.532 99.4142 149.568L100.24 150.17C100.618 149.288 101.318 148.84 102.242 148.84C103.292 148.84 103.88 149.456 103.88 150.38V150.772L102.018 151.08C100.212 151.388 99.2882 152.214 99.2882 153.264C99.2882 154.524 100.352 155.14 101.668 155.14C102.564 155.14 103.474 154.762 103.922 154.104C104.048 154.888 104.496 155.14 105.182 155.14C105.532 155.14 105.826 155.07 106.022 155L106.092 154.118C105.924 154.16 105.714 154.188 105.532 154.188ZM101.724 154.16C100.926 154.16 100.45 153.852 100.45 153.264C100.45 152.606 101.08 152.2 102.312 151.976L103.88 151.682V152.648C103.88 153.572 102.844 154.16 101.724 154.16ZM111.124 147.86C110.158 147.86 109.262 148.21 108.772 149.092L108.702 148H107.722V155H108.842V151.276C108.842 149.484 109.99 148.84 111.012 148.84C111.978 148.84 112.734 149.358 112.734 150.912V155H113.854V150.52C113.854 148.714 112.622 147.86 111.124 147.86ZM127.503 145.76V149.792H122.491V145.76H121.371V155H122.491V150.842H127.503V155H128.623V145.76H127.503ZM134.274 147.86C132.16 147.86 130.886 149.232 130.886 151.5C130.886 153.768 132.16 155.14 134.274 155.14C136.388 155.14 137.662 153.768 137.662 151.5C137.662 149.232 136.388 147.86 134.274 147.86ZM134.274 148.826C135.688 148.826 136.542 149.834 136.542 151.5C136.542 153.166 135.688 154.174 134.274 154.174C132.86 154.174 132.006 153.166 132.006 151.5C132.006 149.834 132.86 148.826 134.274 148.826ZM142.217 155.14C144.009 155.14 145.143 154.286 145.143 153.068C145.143 151.92 144.443 151.332 142.483 151.01C141.055 150.772 140.593 150.464 140.593 149.862C140.593 149.344 141.293 148.84 142.231 148.84C143.113 148.84 143.743 149.176 144.051 150.1L145.003 149.54C144.611 148.392 143.729 147.86 142.231 147.86C140.523 147.86 139.473 148.826 139.473 149.96C139.473 151.136 140.201 151.682 142.189 152.046C143.589 152.298 144.023 152.606 144.023 153.124C144.023 153.698 143.477 154.16 142.329 154.16C141.321 154.16 140.453 153.782 140.117 152.928L139.207 153.558C139.739 154.636 140.929 155.14 142.217 155.14ZM150.664 147.86C149.558 147.86 148.676 148.42 148.27 149.218L148.2 148H147.22V157.94H148.34V153.908C148.774 154.636 149.614 155.14 150.664 155.14C152.61 155.14 153.856 153.782 153.856 151.5C153.856 149.218 152.61 147.86 150.664 147.86ZM150.538 154.16C149.208 154.16 148.34 153.166 148.34 151.584V151.416C148.34 149.834 149.208 148.84 150.538 148.84C151.91 148.84 152.736 149.876 152.736 151.5C152.736 153.124 151.91 154.16 150.538 154.16ZM156.598 146.656C157.102 146.656 157.438 146.32 157.438 145.816C157.438 145.312 157.102 144.976 156.598 144.976C156.094 144.976 155.758 145.312 155.758 145.816C155.758 146.32 156.094 146.656 156.598 146.656ZM157.158 148H156.038V155H157.158V148ZM163.649 153.572C163.327 153.894 162.963 154.09 162.459 154.09C161.843 154.09 161.409 153.754 161.409 153.068V148.966H163.999V148H161.409V146.012L160.289 146.32V148H158.889V148.966H160.289V153.264C160.303 154.622 161.199 155.14 162.235 155.14C163.005 155.14 163.607 154.902 164.041 154.51L163.649 153.572ZM171.362 154.188C170.97 154.188 170.83 154.02 170.83 153.684V150.24C170.83 148.616 169.668 147.86 168.072 147.86C166.714 147.86 165.608 148.532 165.244 149.568L166.07 150.17C166.448 149.288 167.148 148.84 168.072 148.84C169.122 148.84 169.71 149.456 169.71 150.38V150.772L167.848 151.08C166.042 151.388 165.118 152.214 165.118 153.264C165.118 154.524 166.182 155.14 167.498 155.14C168.394 155.14 169.304 154.762 169.752 154.104C169.878 154.888 170.326 155.14 171.012 155.14C171.362 155.14 171.656 155.07 171.852 155L171.922 154.118C171.754 154.16 171.544 154.188 171.362 154.188ZM167.554 154.16C166.756 154.16 166.28 153.852 166.28 153.264C166.28 152.606 166.91 152.2 168.142 151.976L169.71 151.682V152.648C169.71 153.572 168.674 154.16 167.554 154.16ZM174.616 144.78H173.496V153.264C173.496 154.538 174.042 155.14 175.176 155.14C175.54 155.14 175.918 155.07 176.212 154.944L176.394 153.866C175.988 154.02 175.75 154.062 175.372 154.062C174.798 154.062 174.616 153.838 174.616 153.124V144.78Z" fill="#02BB9A"></path>
                        </svg>