<svg width="24" height="24" viewBox="0 0 24 24" fill="none" xmlns="http://www.w3.org/2000/svg">
<g clip-path="url(#clip0_3470_4120)">
<path d="M15.5385 15.185L15.5386 15.1851C15.6362 15.2827 15.6362 15.4409 15.5386 15.5385L15.5385 15.5386C15.4896 15.5875 15.4265 15.6118 15.3618 15.6118C15.297 15.6118 15.234 15.5875 15.1851 15.5386L15.185 15.5385L11.8233 12.1767L11.8232 12.1767C11.7763 12.1298 11.75 12.0663 11.75 12V5.20744C11.75 5.06937 11.8619 4.95744 12 4.95744C12.1381 4.95744 12.25 5.06937 12.25 5.20744V11.6894V11.8965L12.3964 12.0429L15.5385 15.185ZM0.5 12C0.5 5.65931 5.65931 0.5 12 0.5C18.3407 0.5 23.5 5.65931 23.5 12C23.5 18.3407 18.3407 23.5 12 23.5C5.65931 23.5 0.5 18.3407 0.5 12ZM1 12C1 18.0659 5.93414 23 12 23C18.0659 23 23 18.0659 23 12C23 5.93414 18.0659 1 12 1C5.93414 1 1 5.93414 1 12Z" fill="black" stroke="#02BB9A"/>
</g>
<defs>
<clipPath id="clip0_3470_4120">
<rect width="24" height="24" fill="white"/>
</clipPath>
</defs>
</svg>
