<svg width="19" height="19" viewBox="0 0 19 19" fill="none" xmlns="http://www.w3.org/2000/svg">
<g clip-path="url(#clip0_913_7845)">
<path d="M14.8332 4.20217C14.1234 3.48521 13.278 2.91675 12.3462 2.52995C11.4144 2.14315 10.4149 1.94575 9.40607 1.94926C5.17897 1.94926 1.73381 5.39443 1.73381 9.62152C1.73381 10.9764 2.08994 12.2925 2.75575 13.4538L1.67188 17.4331L5.73639 16.3648C6.85897 16.9764 8.12091 17.3015 9.40607 17.3015C13.6332 17.3015 17.0783 13.8564 17.0783 9.62927C17.0783 7.57765 16.2809 5.64991 14.8332 4.20217V4.20217ZM9.40607 16.0009C8.26026 16.0009 7.13768 15.6912 6.15446 15.1106L5.9222 14.9712L3.50671 15.606L4.14929 13.2525L3.99446 13.0125C3.35787 11.996 3.01985 10.8209 3.01897 9.62152C3.01897 6.10668 5.88349 3.24217 9.39833 3.24217C11.1016 3.24217 12.7041 3.90797 13.9041 5.11572C14.4983 5.70717 14.9692 6.41068 15.2895 7.18547C15.6097 7.96025 15.7731 8.7909 15.7699 9.62927C15.7854 13.1441 12.9209 16.0009 9.40607 16.0009V16.0009ZM12.9054 11.2318C12.7119 11.1389 11.7674 10.6744 11.597 10.6047C11.419 10.5428 11.2951 10.5118 11.1635 10.6977C11.0319 10.8912 10.668 11.3247 10.5596 11.4486C10.4512 11.5802 10.3351 11.5957 10.1416 11.4951C9.948 11.4022 9.32865 11.1931 8.60091 10.5428C8.028 10.0318 7.64865 9.40475 7.53252 9.2112C7.42413 9.01765 7.51704 8.91701 7.61768 8.81636C7.70284 8.7312 7.81123 8.59185 7.90413 8.48346C7.99704 8.37507 8.03575 8.28991 8.09768 8.16604C8.15962 8.03443 8.12865 7.92604 8.0822 7.83314C8.03575 7.74023 7.64865 6.79572 7.49381 6.40862C7.33897 6.03701 7.17639 6.08346 7.06026 6.07572H6.68865C6.55704 6.07572 6.35575 6.12217 6.17768 6.31572C6.00736 6.50927 5.51187 6.97378 5.51187 7.9183C5.51187 8.86281 6.20091 9.77636 6.29381 9.90023C6.38671 10.0318 7.64865 11.9673 9.56865 12.7957C10.0254 12.997 10.3816 13.1131 10.6603 13.1983C11.117 13.3454 11.5351 13.3222 11.868 13.2757C12.2396 13.2215 13.0061 12.8112 13.1609 12.3622C13.3235 11.9131 13.3235 11.5338 13.2693 11.4486C13.2151 11.3635 13.099 11.3247 12.9054 11.2318V11.2318Z" fill="#02BB9A"/>
</g>
<defs>
<clipPath id="clip0_913_7845">
<rect width="18.5806" height="18.5806" fill="white" transform="translate(0.0849609 0.400391)"/>
</clipPath>
</defs>
</svg>
